/* XPM */
static char * lescienze_20x20_xpm[] = {
"20 20 267 2",
"  	c None",
". 	c #FFFFFF",
"+ 	c #FEFEFE",
"@ 	c #FEFEFF",
"# 	c #FFFFFE",
"$ 	c #FEFEE7",
"% 	c #FEFED8",
"& 	c #FEFED6",
"* 	c #FEFEEF",
"= 	c #FEFECD",
"- 	c #FEFEC1",
"; 	c #FEFEFB",
"> 	c #FDFDBD",
", 	c #FEFEF3",
"' 	c #FDFD74",
") 	c #FDFD22",
"! 	c #FEFE23",
"~ 	c #F8F81A",
"{ 	c #F3F3A5",
"] 	c #FFFFCC",
"^ 	c #FFFF0A",
"/ 	c #FFFF00",
"( 	c #FDFD9A",
"_ 	c #FEFEBF",
": 	c #FFFF0F",
"< 	c #FDFD81",
"[ 	c #FEFE51",
"} 	c #FDFD00",
"| 	c #F0F000",
"1 	c #E9E995",
"2 	c #FFFF52",
"3 	c #E7E700",
"4 	c #E3E300",
"5 	c #F5F508",
"6 	c #FDFDFF",
"7 	c #FFFF55",
"8 	c #E8E800",
"9 	c #D7D700",
"0 	c #FEFE25",
"a 	c #FAFADB",
"b 	c #FFFF48",
"c 	c #C4C401",
"d 	c #A3A30A",
"e 	c #9F9F00",
"f 	c #D7D79B",
"g 	c #FAFA00",
"h 	c #D0D043",
"i 	c #E0E05D",
"j 	c #F8F800",
"k 	c #EEEECF",
"l 	c #FFFFE6",
"m 	c #FFFF2A",
"n 	c #C0C032",
"o 	c #E1E190",
"p 	c #F4F400",
"q 	c #F5F5B7",
"r 	c #FFFFF1",
"s 	c #FFFF34",
"t 	c #D0D06E",
"u 	c #FEFEDC",
"v 	c #D9D98B",
"w 	c #FFFFC8",
"x 	c #FFFF05",
"y 	c #DCDC8E",
"z 	c #FFFFD4",
"A 	c #F3F30A",
"B 	c #DDDD9C",
"C 	c #FFFFF2",
"D 	c #F2F200",
"E 	c #EFEF99",
"F 	c #FEFEE3",
"G 	c #FCFC25",
"H 	c #D6D684",
"I 	c #FFFFEB",
"J 	c #DDDDAE",
"K 	c #FFFFE1",
"L 	c #D7D76D",
"M 	c #FFFFCA",
"N 	c #EAEA00",
"O 	c #EAEAC1",
"P 	c #F7F718",
"Q 	c #E9E980",
"R 	c #FDFDFC",
"S 	c #FDFD1E",
"T 	c #F1F146",
"U 	c #FFFF3D",
"V 	c #FEFEA5",
"W 	c #FEFE9C",
"X 	c #F9F903",
"Y 	c #DFDFBA",
"Z 	c #FFFFEE",
"` 	c #FFFF0C",
" .	c #D7D75A",
"..	c #FFFFC3",
"+.	c #F6F6DE",
"@.	c #FAFA2A",
"#.	c #E6E670",
"$.	c #FCFCFA",
"%.	c #FFFFCD",
"&.	c #FFFF1B",
"*.	c #F5F500",
"=.	c #FFFF22",
"-.	c #FEFEE1",
";.	c #FEFE8F",
">.	c #FBFB04",
",.	c #DFDFBD",
"'.	c #FFFFF5",
").	c #FFFF0D",
"!.	c #D8D851",
"~.	c #FFFFBC",
"{.	c #E1E100",
"].	c #FBFBE8",
"^.	c #FEFE30",
"/.	c #E3E360",
"(.	c #FBFBF8",
"_.	c #FEFDC2",
":.	c #E4E40A",
"<.	c #AFAF17",
"[.	c #B9B933",
"}.	c #DADA00",
"|.	c #ECECA6",
"1.	c #FCFC87",
"2.	c #DADA01",
"3.	c #E0E0BD",
"4.	c #FFFFFA",
"5.	c #EEEE0A",
"6.	c #C9C94D",
"7.	c #FFFFB7",
"8.	c #C9C900",
"9.	c #F9F9E9",
"0.	c #EFEF33",
"a.	c #D4D45A",
"b.	c #FFFEFE",
"c.	c #F2EFD5",
"d.	c #C2C36C",
"e.	c #F4F4E8",
"f.	c #FCFCFB",
"g.	c #BCBC66",
"h.	c #E0DDB4",
"i.	c #E9E6B6",
"j.	c #C1C172",
"k.	c #F0F0DD",
"l.	c #C6C678",
"m.	c #D4D49D",
"n.	c #F1F1D9",
"o.	c #BDBD61",
"p.	c #FAFAF3",
"q.	c #FCFDF9",
"r.	c #D3D491",
"s.	c #D7D7A4",
"t.	c #FDFDFB",
"u.	c #FEF1EA",
"v.	c #FFC49F",
"w.	c #FFF9F6",
"x.	c #FFD8C0",
"y.	c #FFCFB1",
"z.	c #FFF7F3",
"A.	c #FEDFCA",
"B.	c #FFF9F8",
"C.	c #FFFCFC",
"D.	c #FFF8F8",
"E.	c #FFF5EE",
"F.	c #FFFCFE",
"G.	c #FFFCFD",
"H.	c #FFFDFC",
"I.	c #FFF8F4",
"J.	c #FFC6A1",
"K.	c #FFD0B2",
"L.	c #FEC6A1",
"M.	c #FFC9A6",
"N.	c #FEC19A",
"O.	c #FFE2CE",
"P.	c #FFE7D7",
"Q.	c #FED5B9",
"R.	c #FED6BC",
"S.	c #FED9C1",
"T.	c #FFCAA9",
"U.	c #FEC49E",
"V.	c #FEE9DC",
"W.	c #FEC39E",
"X.	c #FFDFCA",
"Y.	c #FFCFB0",
"Z.	c #FEF8F3",
"`.	c #FFC8A5",
" +	c #FFAB74",
".+	c #FEEEE3",
"++	c #FFF8F3",
"@+	c #FFF0E7",
"#+	c #FEC59F",
"$+	c #FFA367",
"%+	c #FED0B3",
"&+	c #FFA36B",
"*+	c #FEFCFA",
"=+	c #FFD6BD",
"-+	c #FEC9A8",
";+	c #FEDAC1",
">+	c #FFBF94",
",+	c #FED0B2",
"'+	c #FFDBC2",
")+	c #FEE9DB",
"!+	c #FEB588",
"~+	c #FDD2BF",
"{+	c #FEC9AB",
"]+	c #FFCDAF",
"^+	c #FEFFFF",
"/+	c #FFCEB1",
"(+	c #FEECE9",
"_+	c #FEC19F",
":+	c #FEC6A8",
"<+	c #FEDED3",
"[+	c #FEBD93",
"}+	c #FFD9C3",
"|+	c #FFDED1",
"1+	c #FFD0BB",
"2+	c #FEBC96",
"3+	c #FED4C1",
"4+	c #FEC7A6",
"5+	c #FFE6D5",
"6+	c #FEFFC4",
"7+	c #FEFF0E",
"8+	c #FDFF77",
"9+	c #F7F700",
"0+	c #F2F39D",
"a+	c #FDFD02",
"b+	c #FEFF59",
"c+	c #FFFF75",
"d+	c #F8F905",
"e+	c #F0F3D2",
"f+	c #FEFF30",
"g+	c #FEFF49",
"h+	c #FEFFAD",
"i+	c #F5F603",
"j+	c #F5F7BC",
"k+	c #F9F9E0",
"l+	c #EEEE29",
"m+	c #FEFE00",
"n+	c #FFFE00",
"o+	c #DBDB10",
"p+	c #E8E8C8",
"q+	c #ECEC44",
"r+	c #FCFC00",
"s+	c #C2C203",
"t+	c #FCFCFF",
"u+	c #FEFEFC",
"v+	c #EEEE4E",
"w+	c #DCDC21",
"x+	c #ECECD7",
"y+	c #DDDD91",
"z+	c #C8C800",
"A+	c #C7C700",
"B+	c #CBCB6C",
"C+	c #FBFBF9",
"D+	c #ECECC5",
"E+	c #C8C803",
"F+	c #C1C100",
"G+	c #D2D28E",
"H+	c #E8E8BA",
"I+	c #C9C908",
"J+	c #CDCD75",
"K+	c #E2E2BC",
"L+	c #DDDDAF",
"M+	c #F6F6EE",
"N+	c #E5E5C4",
"O+	c #DEDEB5",
"P+	c #E5E5C5",
"Q+	c #DCDCAF",
"R+	c #F7F7EF",
". + . . . . . . . @ @ . + # @ . @ . + . ",
"# . $ % % & * + . = - ; # @ . = > , . + ",
". . ' ) ! ~ { @ ] ^ / ( . . _ : / < @ . ",
"@ . [ / } | 1 @ 2 3 4 5 6 . 7 8 9 0 a . ",
". ; b c d e f @ g h i j k l m n o p q . ",
". r s t . @ . u g v w x y z A B C D E @ ",
". F G H I . . > g J K ^ L M N O C P Q R ",
". & S T U V . W X Y Z `  ...4 +.C @.#.$.",
"@ %.&.j *.=.-.;.>.,.'.).!.~.{.]., ^./.(.",
". _.:.<.[.}.|.1.2.3.4.5.6.7.8.9., 0.a.(.",
"b.c.d.e.f.g.h.i.j.k.4.l.m.n.o.p.q.r.s.t.",
"u.v.. b.w.. x.y.. z.A.. B.C.D.. E.F.G.H.",
"I.J.. K.L.z.M.N.O.P.Q.R.S.T.U.V.A.W.X.Y.",
"Z.`.b. +.+++@+#+$+. %+&+*+=+-+;+>+,+'+)+",
"++!+~+{+]+^+/+Q.(+_+:+<+[+}+|+1+2+3+4+5+",
". 6+7+8+6+9+0+^+a+b+c+d+e+l f+g+h+i+j+. ",
". k+l+m+n+o+p+. q+r+/ s+t+u+v+} m+w+x+. ",
". . y+z+A+B+C+. D+E+F+G+. . H+I+A+J+6 . ",
"+ . (.K+L+M+. + + N+O+(.. . @ P+Q+R+. + ",
". + . . + . + + . . . . + + . . + . + . "};
