<?xml version="1.0" encoding="UTF-8" standalone="no"?>
<!-- Created with Inkscape (http://www.inkscape.org/) -->

<svg
   xmlns:dc="http://purl.org/dc/elements/1.1/"
   xmlns:cc="http://creativecommons.org/ns#"
   xmlns:rdf="http://www.w3.org/1999/02/22-rdf-syntax-ns#"
   xmlns:svg="http://www.w3.org/2000/svg"
   xmlns="http://www.w3.org/2000/svg"
   xmlns:sodipodi="http://sodipodi.sourceforge.net/DTD/sodipodi-0.dtd"
   xmlns:inkscape="http://www.inkscape.org/namespaces/inkscape"
   id="svg3039"
   version="1.1"
   inkscape:version="0.48.0 r9654"
   width="514"
   height="514"
   sodipodi:docname="lescienze500.png">
  <metadata
     id="metadata3045">
    <rdf:RDF>
      <cc:Work
         rdf:about="">
        <dc:format>image/svg+xml</dc:format>
        <dc:type
           rdf:resource="http://purl.org/dc/dcmitype/StillImage" />
        <dc:title></dc:title>
      </cc:Work>
    </rdf:RDF>
  </metadata>
  <defs
     id="defs3043" />
  <sodipodi:namedview
     pagecolor="#ffffff"
     bordercolor="#666666"
     borderopacity="1"
     objecttolerance="10"
     gridtolerance="10"
     guidetolerance="10"
     inkscape:pageopacity="0"
     inkscape:pageshadow="2"
     inkscape:window-width="1600"
     inkscape:window-height="1142"
     id="namedview3041"
     showgrid="false"
     inkscape:zoom="1.4307219"
     inkscape:cx="222.88146"
     inkscape:cy="293.5228"
     inkscape:window-x="-3"
     inkscape:window-y="-3"
     inkscape:window-maximized="1"
     inkscape:current-layer="g3049" />
  <g
     id="g3049"
     transform="translate(0.69894847,0.69894742)">
    <path
       style="fill:#fefefd"
       d="M 0,257 0,0 l 257,0 257,0 0,257 0,257 -257,0 -257,0 0,-257 z"
       id="path3065"
       inkscape:connector-curvature="0" />
    <path
       style="fill:#fdccab"
       d="M 92.638466,352.41454 C 81.791555,349.78895 74.16145,345.35799 65.402788,336.59823 59.031239,330.22588 56.420509,326.6885 53.152633,320 50.868514,315.325 48.887259,310.375 48.749845,309 L 48.5,306.5 l 20.855985,-0.27061 20.855986,-0.27061 4.004451,3.61778 C 99.377624,314.2394 103.70587,316 110.00772,316 c 5.84384,0 11.10347,-2.35497 15.42937,-6.90842 L 128.37418,306 l 20.3443,0 c 16.91345,0 20.43877,0.24621 20.90454,1.45998 0.74184,1.93322 -3.41851,10.87604 -8.62975,18.54993 -9.24739,13.61739 -21.83439,22.75897 -36.45337,26.47506 -7.43195,1.88917 -23.95659,1.85269 -31.901434,-0.0704 z m 151.473864,0.005 c -12.6427,-3.40005 -24.09846,-12.00345 -31.99077,-24.02543 -5.35933,-8.16361 -9.68918,-18.47244 -8.7675,-20.87431 0.49479,-1.28948 3.60872,-1.5198 20.54646,-1.5198 l 19.96329,0 2.0484,2.87671 c 3.9299,5.51903 13.00806,7.7841 18.88745,4.71257 1.48519,-0.7759 4.02203,-2.8009 5.63743,-4.5 L 273.37418,306 l 19.3443,0 c 15.24812,0 19.4532,0.28381 19.85862,1.34031 0.66563,1.73463 -3.03013,11.64976 -6.93853,18.61491 -4.3948,7.83197 -14.55575,18.18899 -21.4493,21.86322 -3.2187,1.71554 -8.49757,3.80821 -11.73082,4.65037 -7.29271,1.89951 -21.18946,1.87531 -28.34612,-0.0494 z m 149.9923,-0.002 c -11.80402,-3.17428 -23.46344,-12.15759 -31.49053,-24.2627 -4.8621,-7.33222 -9.93279,-18.88191 -9.16648,-20.87887 0.37423,-0.9753 5.16601,-1.27597 20.3339,-1.27597 l 19.8443,0 2.93709,3.08928 c 1.6154,1.6991 4.15224,3.7241 5.63743,4.5 5.87939,3.07153 14.95755,0.80646 18.88745,-4.71257 l 2.0484,-2.87671 19.82492,0 c 15.10432,0 19.94096,0.30242 20.31227,1.27005 0.79349,2.06778 -5.09648,15.69489 -9.91931,22.94947 -7.88055,11.85402 -19.4765,20.03182 -32.15329,22.6754 -7.24933,1.51175 -20.572,1.277 -27.09615,-0.47744 z M 109.5,301.26692 C 96.922081,300.08984 89,293.46151 89,284.11476 c 0,-7.71753 2.933035,-11.70182 11.5859,-15.73849 11.00908,-5.13587 22.96305,-4.06261 29.69144,2.66577 3.32013,3.32013 3.80669,4.37263 3.53625,7.64941 -0.39255,4.75626 -1.41758,5.0282 -19.56359,5.19024 -8.50943,0.076 -13.25,0.49386 -13.25,1.16797 0,2.61734 3.21704,6.82545 6.35708,8.3155 4.06151,1.92731 12.77668,2.12631 19.09643,0.43603 4.90526,-1.31196 6.56193,-0.63765 4.90571,1.99677 -2.07373,3.29852 -13.7734,6.22566 -21.85922,5.46896 z M 122,276.57258 c 0,-1.45516 -1.10147,-3.29693 -2.75,-4.59829 -4.02665,-3.17868 -12.62007,-2.40794 -15.91944,1.4278 C 99.017698,278.41609 99.869838,279 111.5,279 c 10.44961,0 10.5,-0.0116 10.5,-2.42742 z m 52.67792,24.28634 C 165.28542,299.66703 164,298.8292 164,293.89907 c 0,-8.12197 3.61873,-10.38055 6.66764,-4.1615 2.1379,4.3608 6.47467,6.09501 15.33236,6.13119 10.61338,0.0434 18.19643,-4.96568 16.67774,-11.01661 -0.87279,-3.47746 -4.25268,-4.74736 -18.43962,-6.92818 -13.85796,-2.13025 -17.51088,-3.61695 -19.80969,-8.06238 -3.39646,-6.56803 1.24878,-14.70199 10.81429,-18.93618 4.42854,-1.9603 6.83364,-2.31271 15.25728,-2.23558 5.6369,0.0516 11.9634,0.71501 14.5,1.52046 4.26866,1.35544 4.48731,1.60525 4.25308,4.85931 -0.43925,6.10251 -1.19036,7.9304 -3.25871,7.9304 -1.28831,0 -2.45285,-1.16153 -3.37338,-3.36468 -1.72036,-4.11739 -5.49941,-5.63594 -14.02021,-5.63377 -7.3059,0.002 -12.68431,2.35875 -13.99195,6.13144 -2.06018,5.94384 1.46106,7.92818 18.19406,10.25299 C 209.30861,272.67922 214,275.4875 214,283.07462 c 0,12.33354 -18.02691,20.48662 -39.32208,17.7843 z m 60.04471,0.081 c -16.5677,-2.71168 -23.25886,-18.57934 -11.8742,-28.1589 6.95672,-5.85369 22.75603,-9.26657 30.65157,-6.62118 3.27142,1.09608 4.05976,1.86309 4.32808,4.21102 0.18045,1.57896 0.0594,3.94146 -0.26905,5.25 -0.80602,3.21142 -4.30905,3.16686 -5.53988,-0.0705 -1.74337,-4.58542 -13.90548,-5.81422 -19.74191,-1.99463 -4.51963,2.95783 -4.63703,12.30348 -0.2137,17.01189 3.27789,3.48916 8.10126,4.68803 17.2526,4.28821 7.15849,-0.31275 8.18668,-0.14165 8.49125,1.41303 0.70221,3.58446 -12.90334,6.33744 -23.08476,4.67102 z m 75.04688,0.0282 c -5.8091,-0.97835 -12.42051,-4.55954 -15.09521,-8.1766 -1.19674,-1.61837 -2.17385,-4.8383 -2.42766,-8 -0.34951,-4.35379 -0.006,-5.90747 1.93808,-8.76767 6.79977,-10.00368 24.16188,-13.96892 35.60424,-8.13147 5.83563,2.97712 9.33828,10.18207 6.70344,13.78896 -1.16581,1.59588 -3.23765,1.86034 -16.91049,2.15846 C 307.43238,284.10466 304,284.47325 304,285.51302 c 0,2.3986 4.98771,7.32782 8.63164,8.53043 3.42422,1.13009 11.81154,0.86055 19.11836,-0.6144 2.7851,-0.5622 3.25,-0.37545 3.25,1.30558 0,2.47867 -5.34203,4.96525 -13.5,6.28393 -3.3,0.53342 -6.225,0.91953 -6.5,0.85803 -0.275,-0.0615 -2.62872,-0.47034 -5.23049,-0.90852 z M 325,276.57258 c 0,-5.45029 -9.3803,-8.49576 -15.85497,-5.14758 -2.75197,1.4231 -5.54592,5.84078 -4.41147,6.97523 C 305.06344,278.7301 309.75833,279 315.16667,279 324.91048,279 325,278.9779 325,276.57258 z m 144.05368,24.27495 c -7.14199,-1.16393 -13.36851,-4.88386 -15.42355,-9.21455 -2.23939,-4.71915 -2.09365,-12.36053 0.31094,-16.3041 5.42197,-8.89211 25.67343,-13.24232 35.34671,-7.59282 4.4256,2.58469 7.87749,7.97553 7.50933,11.72736 -0.3798,3.87054 -2.11433,4.2626 -19.54711,4.41827 -12.75364,0.11388 -13.25,0.19693 -13.25,2.2171 0,2.87245 5.4153,7.70089 9.49532,8.46631 3.32563,0.62389 10.54826,0.17028 17.75468,-1.11506 3.03848,-0.54194 3.75,-0.36786 3.75,0.9175 0,4.50767 -15.02436,8.25995 -25.94632,6.47999 z M 485,276.95455 c 0,-1.125 -1.15757,-3.20303 -2.57237,-4.61783 -2.28257,-2.28257 -3.18473,-2.5216 -8.00769,-2.12164 C 468.55445,270.70149 464,273.7433 464,277.17431 464,278.82598 465.00084,279 474.5,279 c 9.91111,0 10.5,-0.11472 10.5,-2.04545 z M 31,298.63161 c 0,-0.77087 1.125,-2.13872 2.5,-3.03965 l 2.5,-1.63807 0,-18.77694 C 36,255.02244 35.754852,254 30.922445,254 c -3.313967,0 -5.542283,-2.2611 -3.684776,-3.73899 1.498593,-1.19233 27.651744,-1.10532 29.560889,0.0983 C 58.79835,251.62016 56.31529,254 53,254 c -4.789787,0 -5.066735,1.25517 -4.772508,21.62958 L 48.5,294.5 l 11.234508,0.28261 c 14.540184,0.36576 17.265893,-0.34467 19.523362,-5.08858 C 80.366967,287.36335 81.711484,286 82.900881,286 c 2.605609,0 2.946399,1.61743 1.685588,8 L 83.5,299.5 57.25,299.7666 C 35.275646,299.98978 31,299.80491 31,298.63161 z M 262.5,299 c -0.95818,-1.55037 0.39078,-2.99841 2.80902,-3.01531 4.43107,-0.031 4.7788,-1.00704 4.47653,-12.56568 L 269.5,272.5 l -3.16489,-0.30701 c -3.91439,-0.37972 -5.18684,-2.91176 -2.0654,-4.10992 3.69601,-1.41871 14.70932,-3.21407 15.75432,-2.56822 0.55844,0.34514 0.97597,6.51486 0.97597,14.42172 0,14.68749 0.26904,15.56193 4.98978,16.21761 1.3948,0.19373 2.63648,1.11546 2.82333,2.09582 0.30383,1.59411 -0.82579,1.75 -12.68077,1.75 -7.59751,0 -13.27154,-0.41622 -13.63234,-1 z m 77,0 c -0.95818,-1.55037 0.39078,-2.99841 2.80902,-3.01531 4.43107,-0.031 4.7788,-1.00704 4.47653,-12.56568 L 346.5,272.5 l -3.25,-0.31336 c -2.42783,-0.23409 -3.25,-0.79846 -3.25,-2.23095 0,-1.95467 0.7228,-2.24943 8.5,-3.46635 2.2,-0.34424 5.00574,-0.86725 6.23497,-1.16225 1.72185,-0.41322 2.45328,0.0378 3.18588,1.96473 l 0.95091,2.50108 4.81412,-2.47928 c 4.06316,-2.09253 5.82931,-2.41189 11.32209,-2.04728 C 387.92522,266.12377 391,269.78872 391,284.3279 c 0,10.02163 0.4998,11.20378 5,11.82628 1.40186,0.19392 2.5,1.0047 2.5,1.84582 0,1.22222 -1.66667,1.5 -9,1.5 l -9,0 -0.5,-11.84192 c -0.46161,-10.93274 -0.68125,-11.98842 -2.86078,-13.75 -4.14989,-3.35411 -15.96683,-1.96723 -18.16033,2.13136 -1.45754,2.72345 -1.24383,17.49808 0.27111,18.7423 0.6875,0.56464 2.3704,1.18224 3.73978,1.37244 1.3948,0.19373 2.63648,1.11546 2.82333,2.09582 0.30383,1.59411 -0.82579,1.75 -12.68077,1.75 -7.59751,0 -13.27154,-0.41622 -13.63234,-1 z m 61.16667,0.33333 C 400.3,298.96667 400,298.32237 400,297.90157 c 0,-0.4208 6.75,-6.49608 15,-13.50063 8.25,-7.00454 15,-12.88525 15,-13.06823 C 430,271.14972 425.74955,271 420.55457,271 c -9.31792,0 -9.46323,0.0371 -10.76348,2.75 -0.78353,1.63479 -2.12364,2.75 -3.30456,2.75 -1.73518,0 -1.96448,-0.61925 -1.81227,-4.89417 0.0958,-2.6918 0.718,-5.23023 1.38257,-5.64096 0.88607,-0.54762 32.66549,-0.56967 39.19317,-0.0272 0.4125,0.0343 0.75,0.90907 0.75,1.94398 0,1.17496 -5.34726,6.52683 -14.23774,14.25 L 417.52453,294.5 l 9.48773,0.29317 c 11.56016,0.35722 13.59502,-0.0923 14.36852,-3.17416 0.61712,-2.45882 3.0875,-4.06566 4.70946,-3.06324 1.0238,0.63274 1.23275,7.43897 0.30277,9.86244 -0.5283,1.37673 -3.4883,1.58179 -22.83333,1.58179 -12.22449,0 -22.52635,-0.3 -22.89301,-0.66667 z M 271.22251,258.4433 C 266.72322,255.29187 269.29352,250 275.32347,250 c 6.29643,0 8.53747,6.37544 3.11026,8.84824 -3.34232,1.52286 -4.55621,1.4547 -7.21122,-0.40494 z M 50.074975,242.59034 c -0.90919,-1.09551 0.857087,-14.07699 7.925572,-58.25 C 63.003065,153.07815 67.422763,126.375 67.822099,125 l 0.726064,-2.5 49.475917,0 49.47592,0 0,21 0,21 -35.12204,0.26265 -35.122032,0.26265 -0.688991,7.23735 c -0.378945,3.98054 -1.34671,11.68967 -2.150588,17.13139 -0.803878,5.44173 -1.237015,10.11863 -0.962526,10.39312 0.274489,0.27449 2.87217,-0.5179 5.772624,-1.76087 7.980353,-3.41991 23.276943,-3.97942 32.468353,-1.18761 14.49594,4.40301 27.87519,16.53448 35.88815,32.54114 2.67365,5.34088 4.39078,10.0535 4.21451,11.56664 L 171.5,243.5 l -20.33683,0.27098 -20.33684,0.27098 -5.2754,-4.82141 c -10.59358,-9.68194 -22.95762,-9.58943 -36.031256,0.2696 L 83.539348,244 67.392119,244 c -12.673229,0 -16.398931,-0.30328 -17.317144,-1.40966 z m 41.88607,-81.7789 C 96.078904,156.39144 93.156939,148 87.5,148 c -3.302946,0 -6.5,3.68891 -6.5,7.5 0,3.81109 3.197054,7.5 6.5,7.5 1.332149,0 3.33962,-0.98485 4.461045,-2.18856 z m 103.005075,81.64773 c -0.98958,-1.19237 -1.12851,-5.54573 -0.6143,-19.25 1.6794,-44.75787 10.09914,-73.70237 26.0946,-89.70524 C 231.8199,122.12517 241.95251,118 258.5286,118 c 16.02777,0 27.48271,4.94049 38.29246,16.51547 7.261,7.77501 13.41919,18.87181 17.03917,30.70387 5.26641,17.21349 8.48568,43.62468 7.95708,65.28066 l -0.31731,13 -20,0 -20,0 -0.69942,-20 c -0.92455,-26.43776 -2.30783,-39.40109 -5.20708,-48.79795 -4.01605,-13.01651 -9.68424,-18.33214 -18.63134,-17.47244 -6.57646,0.63192 -10.64874,3.871 -14.05411,11.17862 -4.03795,8.66509 -5.82955,21.42642 -6.94041,49.43552 -0.53102,13.38906 -1.21753,24.75156 -1.52558,25.25 -0.30805,0.49844 -9.02844,0.90625 -19.37863,0.90625 -15.72926,0 -19.02847,-0.25294 -20.09731,-1.54083 z m 150.72106,0.89468 c -1.07087,-1.07088 -0.80729,-31.32649 0.36716,-42.14326 2.47186,-22.76621 8.48339,-44.08342 16.0288,-56.83898 7.14056,-12.07115 19.30046,-21.52602 32.04828,-24.91897 7.0678,-1.88117 21.95962,-1.84041 29.33362,0.0803 25.73198,6.70233 41.62477,32.50143 46.97087,76.24878 2.35162,19.24333 3.22308,44.71935 1.59676,46.67895 -1.06741,1.28615 -4.37698,1.53936 -20.11993,1.53936 -16.93074,0 -18.93497,-0.17754 -19.75511,-1.75 -0.50201,-0.9625 -1.1566,-12.1 -1.45465,-24.75 -0.6576,-27.91069 -2.30984,-39.14915 -7.20378,-49 -4.14811,-8.34958 -7.10643,-10.73636 -13.92949,-11.23835 -10.53237,-0.77489 -16.73873,6.91946 -20.46163,25.36733 -1.10054,5.45343 -3.01575,34.22959 -3.38574,50.87102 l -0.22234,10 -19.56282,0.27052 c -10.75955,0.14878 -19.87205,-0.0387 -20.25,-0.41667 z"
       id="path3063"
       inkscape:connector-curvature="0" />
    <path
       style="fill:#fda59e"
       d="m 100,353.04229 c -13.85697,-1.95642 -23.129465,-6.36974 -33.054618,-15.73262 -7.374099,-6.95636 -13.76479,-16.48854 -16.565845,-24.70919 -1.384258,-4.06257 -1.425264,-4.95751 -0.260942,-5.69494 0.759773,-0.4812 9.776329,-0.88181 20.036791,-0.89023 L 88.810773,306 l 4.344613,3.64798 c 11.417064,9.58641 22.677514,9.78022 32.140394,0.55319 l 3.79578,-3.70117 19.46277,-0.30951 c 22.01704,-0.35013 21.93859,-0.37893 18.99611,6.97506 -4.42529,11.05988 -15.14148,24.12507 -25.57327,31.17896 -10.21739,6.90891 -28.22289,10.6397 -41.97717,8.69778 z m 150.3872,-0.0411 c -12.53242,-1.83669 -23.55797,-7.89622 -32.4308,-17.82363 -5.91099,-6.61354 -14.19395,-22.34615 -13.75386,-26.12401 L 204.5,306.5 l 18.68973,-0.27184 18.68973,-0.27185 3.89228,3.93137 c 7.63032,7.70696 16.35676,7.72214 24.68771,0.0429 L 274.72366,306 l 17.38817,0.0153 c 9.56349,0.008 18.01158,0.41012 18.77352,0.89267 1.77417,1.1236 0.98465,4.35998 -3.31181,13.57578 -8.83973,18.96096 -22.63967,29.79772 -41.40139,32.51152 -7.43148,1.07494 -8.48783,1.07533 -15.78495,0.006 z M 400,352.90737 c -16.79184,-2.3969 -32.4533,-14.98553 -41.41744,-33.29122 -5.01914,-10.2496 -5.45987,-12.26027 -2.83256,-12.92243 0.9625,-0.24258 9.47542,-0.51749 18.9176,-0.61092 l 17.1676,-0.16988 5.06003,4.49403 c 8.29864,7.37037 16.10982,7.23598 23.99132,-0.41276 L 425.00229,306 l 17.74885,0.0153 c 9.76188,0.008 18.39572,0.42462 19.18632,0.92488 3.56497,2.25575 -9.2639,25.76796 -18.50957,33.92355 -11.27867,9.9489 -27.18988,14.36147 -43.42789,12.04363 z m -292.6702,-53.014 c -10.793914,-1.36845 -17.324871,-7.58554 -17.328246,-16.49549 -0.0032,-8.42828 7.070062,-14.38764 19.634116,-16.54214 6.25378,-1.0724 7.65276,-0.99435 12.92083,0.72082 6.57472,2.1406 10.7782,6.79991 10.23912,11.34947 -0.39958,3.37226 -2.6551,3.85479 -18.577,3.97429 -14.893069,0.11178 -15.848965,0.59479 -12.53567,6.33425 3.0009,5.1983 7.46853,6.9508 16.31705,6.40064 4.125,-0.25648 8.7375,-0.78178 10.25,-1.16734 4.06591,-1.03647 3.49299,1.32374 -0.75185,3.09735 -4.89966,2.04721 -14.05142,3.10365 -20.16835,2.32815 z M 123,277.58179 c 0,-3.7709 -1.00902,-5.53509 -4.07152,-7.11878 -4.59504,-2.37618 -11.26914,-1.88869 -14.79831,1.08091 -3.18081,2.67648 -4.682755,5.75296 -3.6357,7.44713 C 100.85239,279.57018 105.77903,280 112.05902,280 122.96405,280 123,279.99206 123,277.58179 z m 51.58625,22.26707 c -3.80256,-0.48168 -7.51506,-1.37482 -8.25,-1.98476 -1.57746,-1.30918 -1.75234,-7.7176 -0.26918,-9.8641 0.90074,-1.30359 1.19335,-1.25667 2.23469,0.35833 3.24863,5.03826 4.99611,6.47924 9.11512,7.51642 6.04661,1.52256 11.24503,1.41482 17.21033,-0.35668 6.47994,-1.92434 9.62178,-5.20823 9.19431,-9.61002 -0.46198,-4.75716 -4.05175,-6.40807 -19.29779,-8.87493 -13.42942,-2.17293 -16.36131,-3.32942 -19.12192,-7.54263 -1.99437,-3.04379 -1.26089,-8.12863 1.719,-11.91694 4.96254,-6.30885 17.7889,-9.57376 30.30048,-7.71289 11.68742,1.73828 12.5382,2.66255 10.02356,10.88934 -0.69545,2.27522 -2.98843,1.29754 -4.14535,-1.76749 -1.65162,-4.37565 -6.85962,-6.27382 -15.9535,-5.8146 -8.08366,0.40821 -12.13153,2.52982 -13.8076,7.23701 -1.96321,5.51361 3.27857,8.87481 16.4616,10.5557 18.17966,2.31799 23.00361,4.81967 22.99626,11.92574 -0.0125,12.07312 -17.17499,19.65236 -38.41001,16.9625 z m 60.31671,0.11682 c -5.94037,-0.97708 -10.02194,-3.12994 -13.28414,-7.00684 -7.33711,-8.71966 -3.02738,-19.04325 9.98184,-23.91062 7.26737,-2.71907 15.78216,-3.57296 21.14934,-2.12092 4.07754,1.10313 4.25,1.30815 4.25,5.05223 0,4.98307 -1.74203,6.09472 -4.22004,2.69295 -3.89699,-5.3497 -15.95974,-5.91642 -21.77521,-1.02303 -2.65356,2.23283 -3.00475,3.15671 -3.00475,7.90465 0,4.5673 0.45895,5.89903 3.04998,8.85005 4.11603,4.68789 8.52688,5.97918 18.16698,5.31843 5.73572,-0.39313 7.78622,-0.22435 7.51222,0.61835 -0.99788,3.06903 -13.04308,5.06942 -21.82622,3.62475 z m 75.37764,-0.0429 C 299.67633,298.50689 293,292.06412 293,283.24675 c 0,-8.39463 9.17794,-15.58909 21.5,-16.85354 11.61038,-1.19143 21.5,4.2713 21.5,11.87595 0,3.23194 -0.25642,3.51154 -3.75,4.08899 -2.0625,0.34091 -9.4875,0.62479 -16.5,0.63084 -14.02714,0.0121 -14.28132,0.14908 -11.22939,6.05086 3.14156,6.07512 14.65129,8.78658 24.61982,5.79993 4.43477,-1.32869 6.29396,-0.3618 3.3889,1.76244 -3.97237,2.90466 -14.0734,4.41223 -22.24873,3.32061 z M 326.29418,279.25 c 0.22671,-0.4125 0.0169,-2.20684 -0.46632,-3.98742 -1.62444,-5.98615 -11.04019,-8.25958 -17.61242,-4.25252 -3.34328,2.03838 -5.33576,5.48298 -4.47705,7.73994 0.52784,1.38735 21.80881,1.85909 22.55579,0.5 z M 468,299.64859 c -8.8186,-1.9918 -12.18588,-4.59493 -14.44531,-11.16717 -3.1283,-9.09962 2.24483,-17.148 13.78897,-20.65442 C 481.96283,263.38656 496,268.8474 496,278.97509 496,282.1778 492.20115,283 477.40352,283 c -11.61404,0 -13.55374,0.22789 -14.10207,1.65682 -0.82163,2.14112 1.44311,6.08724 5.01946,8.74602 2.30881,1.71646 4.21492,2.08803 10.5,2.04688 4.2235,-0.0276 9.37562,-0.4255 11.44916,-0.8841 3.22633,-0.71356 3.68248,-0.60555 3.16273,0.7489 -1.41682,3.69218 -16.7249,6.30087 -25.4328,4.33407 z m 17.82041,-22.40511 c 0.20781,-1.46356 -0.73152,-3.30844 -2.67308,-5.25 C 480.77851,269.62466 479.28247,269 475.97805,269 c -7.49062,0 -14.30255,5.10604 -12.62926,9.46656 0.5207,1.3569 2.25905,1.5581 11.38288,1.31746 10.316,-0.27209 10.78179,-0.37881 11.08874,-2.54054 z M 34.312909,296.19528 37,293.39056 37,274.39528 C 37,253.96412 36.768335,253 31.859017,253 30.351476,253 28.839919,252.55 28.5,252 c -0.400875,-0.64863 4.342621,-1 13.5,-1 9.157379,0 13.900875,0.35137 13.5,1 -0.339919,0.55 -1.851476,1 -3.359017,1 C 47.213495,253 47,253.91748 47,275.09301 c 0,17.03496 0.213501,19.77494 1.581787,20.3 2.023917,0.77665 23.005863,0.57189 26.777961,-0.26132 1.951351,-0.43104 3.380774,-1.72039 4.5,-4.05904 C 82.152474,286.28193 84,285.96016 84,290.35157 c 0,1.93503 -0.438862,4.67253 -0.975249,6.08333 L 82.049502,299 l -25.211842,0 -25.211842,0 2.687091,-2.80472 z M 264,298.2068 c 0,-0.43627 1.4625,-1.22377 3.25,-1.75 l 3.25,-0.9568 0.2849,-10.85548 C 271.09301,272.90497 270.46604,271 266.29422,271 c -4.5587,0 -1.77054,-2.47363 3.78849,-3.36112 10.37753,-1.65675 9.35157,-3.01717 9.91729,13.15027 0.53153,15.19012 0.87671,16.16237 5.75,16.19554 1.2375,0.008 2.25,0.46531 2.25,1.01531 0,0.61111 -4.66667,1 -12,1 -6.6,0 -12,-0.35694 -12,-0.7932 z m 77,0 c 0,-0.43627 1.4625,-1.22377 3.25,-1.75 l 3.25,-0.9568 0.2849,-10.85548 C 348.09167,272.95569 347.45996,271 343.37756,271 c -3.01719,0 -3.11183,-1.80722 -0.12756,-2.43588 12.60146,-2.65462 13.75,-2.65997 13.75,-0.0641 0,2.54092 1.81091,2.54427 6.57314,0.0122 7.95178,-4.22801 19.14629,-3.01119 23.86258,2.59381 2.37263,2.81971 2.56428,3.78378 2.56428,12.89932 0,10.45578 0.99086,12.9947 5.07143,12.9947 1.06071,0 1.92857,0.46893 1.92857,1.04206 0,0.65824 -2.85459,0.93449 -7.75,0.75 L 381.5,298.5 381,287.15962 c -0.48096,-10.90847 -0.60686,-11.43216 -3.30576,-13.75 -4.7813,-4.10623 -16.91839,-2.59635 -19.61375,2.43998 C 357.48622,276.96 357,281.46596 357,285.86283 357,294.32541 358.20373,297 362.01241,297 c 1.02826,0 2.14767,0.45 2.48759,1 0.39897,0.64555 -3.65628,1 -11.44098,1 C 346.42656,299 341,298.64306 341,298.2068 z m 60.16682,-0.20727 c 0.18342,-0.55026 6.82535,-6.51276 14.75985,-13.25 7.93449,-6.73724 14.61483,-12.82825 14.84519,-13.53557 0.327,-1.00408 -1.84335,-1.22332 -9.89935,-1 -9.87787,0.27383 -10.37128,0.39273 -11.5622,2.78604 -0.68421,1.375 -1.82143,2.5 -2.52716,2.5 -1.72215,0 -1.4774,-7.4529 0.28043,-8.5393 0.72347,-0.44712 9.44262,-0.71173 19.37591,-0.58801 15.96461,0.19884 18.06051,0.41484 18.06051,1.86135 0,0.90003 -6.3,7.10412 -14,13.78686 -7.7,6.68275 -14.15,12.5619 -14.33333,13.06478 -0.4222,1.15807 21.84982,1.19016 23.67377,0.0341 0.73724,-0.46728 1.87553,-1.92289 2.52953,-3.23469 0.654,-1.3118 1.62581,-2.38509 2.15956,-2.38509 1.23681,0 1.81695,3.98339 1.0343,7.10171 L 444.9619,299 l -22.06429,0 c -14.272,0 -21.9465,-0.35333 -21.73079,-1.00047 z M 271.75,257.9199 c -2.02114,-1.17721 -2.29058,-3.97932 -0.55,-5.7199 2.42302,-2.42302 9.8,-0.70789 9.8,2.27848 0,1.67246 -3.80574,4.53425 -5.97251,4.49111 -0.84012,-0.0167 -2.31499,-0.48908 -3.27749,-1.04969 z M 50.364607,241.50777 c -0.314942,-0.82073 -0.106734,-4.30823 0.462686,-7.75 C 51.396713,230.316 55.525359,205 60.002061,177.5 c 4.476703,-27.5 8.323467,-50.94188 8.548364,-52.09307 0.40622,-2.07933 0.722189,-2.09688 48.136205,-2.67442 29.74177,-0.36228 48.40298,-0.21974 49.52033,0.37825 C 167.83656,123.9829 168,125.84138 168,143.5 c 0,18.85847 -0.0632,19.46346 -2.15016,20.58036 -2.473,1.32351 -62.76356,0.27548 -66.543298,-1.15673 -1.934595,-0.73305 -2.083758,-1.21364 -1.263924,-4.07223 1.881877,-6.56172 -2.468107,-14.73744 -8.669326,-16.29385 -4.409364,-1.10668 -9.561214,2.24097 -11.780556,7.65495 -1.690052,4.1228 -1.776005,5.23244 -0.686883,8.8676 2.26051,7.54491 8.619974,11.30066 14.320053,8.45709 C 92.920659,166.69174 94.463139,166 94.653638,166 c 0.911337,0 0.170813,15.58648 -1.160029,24.41617 -0.82203,5.4539 -1.300427,10.11034 -1.063106,10.34767 0.237322,0.23732 2.947752,-0.50996 6.023176,-1.66063 13.870921,-5.18977 27.259901,-4.75685 40.114981,1.29708 8.52472,4.01461 18.51805,13.02365 24.31335,21.91862 4.59837,7.05784 9.48307,18.28136 8.58725,19.73082 C 171.12952,242.59946 162.34868,243 150.63715,243 l -20.24482,0 -3.44616,-3.62601 C 117.05248,228.964 101.21973,229.02362 88.411362,239.51912 L 84.163406,243 67.550318,243 c -13.80626,0 -16.709834,-0.25212 -17.185711,-1.49223 z m 145.322993,0.8465 c -1.02322,-1.02323 -0.82976,-23.26858 0.31182,-35.85427 3.29315,-36.30637 11.06981,-58.63566 25.45152,-73.07953 24.51737,-24.62335 64.65779,-18.9351 82.82987,11.73772 7.68215,12.96677 12.33151,28.77899 15.12937,51.45411 1.74549,14.14627 3.04473,41.37903 2.11404,44.31139 C 320.88711,242.93103 320.2236,243 301.54924,243 c -19.18606,0 -19.32003,-0.0151 -19.91895,-2.25 -0.33164,-1.2375 -0.61692,-10.125 -0.63396,-19.75 -0.0622,-35.11189 -4.32787,-54.57467 -13.49348,-61.56562 -4.93772,-3.76619 -10.75543,-4.20678 -16.49122,-1.24895 C 240.19442,163.76366 236.43602,178.6493 235.1519,221 l -0.6519,21.5 -19.0624,0.27094 c -10.48432,0.14901 -19.37182,-0.0385 -19.75,-0.41667 z m 149.97907,-0.0209 c -0.97725,-0.97725 -0.80631,-15.8155 0.36674,-31.83333 4.18033,-57.08205 22.13778,-87.12504 54.79575,-91.67383 30.03184,-4.183 53.67401,14.18393 63.63735,49.43806 4.91516,17.39171 7.91634,43.2242 7.34664,63.23577 l -0.31315,11 -19.5,0 -19.5,0 -0.21934,-11 c -0.35681,-17.89475 -2.25143,-42.44279 -3.88677,-50.36 -2.06082,-9.97706 -5.33214,-17.00059 -9.70765,-20.84234 -6.48818,-5.69669 -14.18269,-5.55426 -20.75586,0.3842 -7.29529,6.59086 -10.53863,20.52732 -11.94292,51.31814 -0.51422,11.275 -0.94676,22.8625 -0.9612,25.75 L 385,243 l -19.33333,0 c -10.63334,0 -19.63334,-0.3 -20,-0.66667 z"
       id="path3061"
       inkscape:connector-curvature="0" />
    <path
       style="fill:#fd9956"
       d="M 94.5,351.34327 C 81.611339,348.59306 70.749489,341.91449 61.900938,331.29927 56.997868,325.41726 49.515109,310.70599 50.336973,308.56425 50.852886,307.2198 53.65716,307 70.294301,307 l 19.357071,0 2.424314,2.59516 c 9.348074,10.00686 22.469244,10.73645 32.903904,1.82958 L 130.16331,307 l 18.85933,0 c 10.45274,0 19.11374,0.41165 19.43008,0.9235 0.81885,1.32493 -6.23858,14.5542 -11.43814,21.44097 -14.30405,18.94557 -37.8818,27.23501 -62.51458,21.9788 z m 152.55644,0.56627 c -7.18137,-1.40819 -18.12459,-7.18879 -24.28669,-12.8291 -3.15164,-2.88476 -7.73283,-8.4705 -10.18042,-12.41273 -4.90284,-7.89681 -8.93732,-17.29564 -8.04439,-18.74043 C 204.86429,307.41057 213.47443,307 223.99092,307 l 18.87289,0 2.0484,2.87671 c 2.71318,3.81032 7.82716,6.12329 13.53858,6.12329 5.46661,0 9.01258,-1.63344 12.80692,-5.89947 L 274.01543,307 l 18.49228,0 c 21.23246,0 20.1618,-0.63929 16.13552,9.63451 -10.40717,26.55588 -34.80034,40.52755 -61.58679,35.27503 z M 400,352.37535 C 388.45879,350.13776 379.08427,344.98296 371.16983,336.52239 363.30609,328.11603 355,313.57594 355,308.21657 355,307.30426 359.70498,307 373.81291,307 l 18.81291,0 2.93709,3.08928 c 4.08192,4.29342 7.59038,5.91072 12.82233,5.91072 5.98349,0 8.63369,-1.13214 12.67174,-5.41325 L 424.44009,307 l 18.31134,0 c 14.19331,0 18.42463,0.29522 18.81508,1.31274 0.71986,1.87591 -5.14696,15.17918 -9.55991,21.67754 -9.8399,14.4899 -22.98855,21.79515 -40.5066,22.50505 -4.95,0.20059 -10.125,0.1466 -11.5,-0.11998 z M 102.75908,298.57707 c -8.575219,-3.06053 -12.152555,-7.32158 -12.127224,-14.44504 0.02388,-6.71545 2.390476,-10.46594 8.536771,-13.52877 6.388683,-3.18361 11.120023,-3.6864 6.145193,-0.65303 -5.467708,3.3339 -7.223422,9.30475 -3.06382,10.41948 1.2375,0.33164 6.1324,0.60913 10.87756,0.61664 9.51984,0.0151 11.41847,-0.96263 10.32556,-5.3171 -0.81656,-3.25343 -3.37201,-5.52106 -8.13692,-7.22044 l -3.8162,-1.36102 4.78212,-0.0439 c 8.74648,-0.0803 15.76289,4.77747 16.06104,11.11972 L 132.5,281.5 118,282.12434 c -7.975,0.34339 -15.2875,0.68089 -16.25,0.75 -2.156995,0.15488 -2.283868,3.19259 -0.29405,7.04047 2.92379,5.654 14.14681,8.43171 22.99739,5.6919 5.09202,-1.5763 6.22275,-1.50966 5.10384,0.30078 -2.14674,3.47348 -19.65796,5.21792 -26.7981,2.66958 z m 67.78288,0.34796 c -4.82353,-1.19457 -5.20657,-1.75311 -4.71771,-6.87935 0.46187,-4.84311 2.12199,-5.17334 4.17575,-0.83063 1.9277,4.07615 6.26185,5.61664 16,5.68691 9.57515,0.0691 15.25769,-2.27747 17.64657,-7.28699 1.56095,-3.27336 1.55667,-3.65584 -0.0687,-6.13648 -2.30239,-3.51389 -6.25864,-5.00474 -17.07786,-6.43551 -17.0066,-2.249 -21.5,-4.80516 -21.5,-12.23069 0,-11.15343 18.59494,-17.88051 37.95078,-13.72943 4.79841,1.02908 5.04922,1.24311 5.04922,4.30887 0,1.77431 -0.65055,4.09952 -1.44567,5.16714 -1.38398,1.85831 -1.49527,1.80116 -2.60841,-1.33925 -1.6878,-4.76167 -5.88509,-6.62108 -14.94592,-6.62108 -11.31367,0 -16.51198,3.50141 -15.80991,10.64903 0.45603,4.64274 4.46537,6.49267 17.9107,8.26408 6.26957,0.82601 12.85467,1.98138 14.63357,2.56749 4.0097,1.3211 7.26564,5.31296 7.26564,8.90784 0,5.55461 -6.99867,12.66418 -14.88237,15.1182 -4.85709,1.5119 -22.6457,2.04077 -27.57567,0.81985 z m 61.45157,0.14063 c -13.95674,-4.24545 -18.04953,-16.95064 -8.1451,-25.28467 4.912,-4.13317 13.64091,-6.97006 21.66582,-7.04137 9.1138,-0.081 11.9215,1.33162 11.07356,5.57134 -0.89907,4.49534 -2.32529,5.50973 -3.47924,2.4746 -1.72917,-4.54807 -13.86015,-6.51675 -20.1413,-3.26863 -6.03298,3.11977 -7.66834,12.38831 -3.23382,18.32788 3.53309,4.73218 8.87782,6.66886 18.01655,6.52833 4.5375,-0.0698 8.25,0.24657 8.25,0.70299 0,2.40003 -17.80582,3.87568 -24.00647,1.98953 z m 73.76555,-0.48859 c -8.57522,-3.06053 -12.15255,-7.32158 -12.12722,-14.44504 0.0228,-6.41938 2.33566,-10.25223 8.06966,-13.37306 10.19593,-5.54932 24.18256,-5.47209 30.21908,0.16685 3.02974,2.83021 4.70382,7.00457 3.77735,9.41893 -0.60963,1.58868 -9.8747,2.63769 -23.38893,2.64814 -5.20454,0.004 -9.46642,0.45276 -9.826,1.03459 -0.96989,1.5693 2.7359,7.20343 6.3319,9.62678 4.42616,2.98278 11.4506,3.74079 18.18373,1.96221 5.71365,-1.50929 6.64116,-1.46073 5.55853,0.29102 -2.14674,3.47348 -19.65796,5.21792 -26.7981,2.66958 z m 20.09781,-18.46746 c 1.98015,-1.25468 0.51881,-6.66892 -2.42497,-8.9845 -3.98663,-3.13588 -8.93587,-3.54366 -13.89174,-1.14456 -4.42361,2.14143 -7.7674,7.21458 -5.93455,9.00379 1.7481,1.70647 19.88636,2.62374 22.25126,1.12527 z m 139.90715,18.89468 C 457.67673,296.56916 453,290.79563 453,283.24675 c 0,-8.22554 7.42689,-14.29931 19.95128,-16.31631 10.8763,-1.75157 19.79714,2.21875 21.96439,9.77551 0.47734,1.66441 0.53036,3.57236 0.11781,4.23988 -0.51011,0.82538 -5.73839,1.39574 -16.34191,1.78275 -11.10248,0.40522 -15.72977,0.92859 -16.07096,1.81772 -0.81442,2.12233 2.86558,7.70889 6.28658,9.54359 4.8799,2.61712 11.76399,3.19801 18.09146,1.52658 5.71365,-1.50929 6.64116,-1.46073 5.55853,0.29102 -1.94988,3.15497 -19.76242,5.21377 -26.79314,3.0968 z m 18.65417,-18.61128 c 2.51373,-0.96461 1.96746,-6.13108 -0.93242,-8.8186 -7.27182,-6.7393 -21.49296,-1.82636 -20.60427,7.11809 0.16446,1.65533 17.98718,3.06259 21.53669,1.70051 z M 33,298.24055 c 0,-0.4177 0.909101,-1.3272 2.020224,-2.02111 1.935887,-1.20898 2.008944,-2.12331 1.75,-21.90203 L 36.5,253.67703 33,252.41459 c -3.17011,-1.14344 -2.368948,-1.26592 8.5,-1.29937 11.221777,-0.0345 11.787908,0.0552 8.729591,1.38423 l -3.270409,1.42117 0.270409,20.78969 L 47.5,295.5 l 13.762856,0.2783 c 15.130267,0.30596 17.309654,-0.25356 18.913998,-4.85578 C 80.737192,289.31513 81.884143,288 82.725633,288 c 1.237083,0 1.401399,0.80412 0.858315,4.20039 -0.369418,2.31021 -1.157032,4.78521 -1.750253,5.5 C 81.003974,298.70014 75.245812,299 56.877555,299 43.7449,299 33,298.65825 33,298.24055 z m 232,-0.17413 c 0,-0.51347 1.2375,-1.07597 2.75,-1.25 l 2.75,-0.31642 0,-12.5 0,-12.5 -2.75,-0.31642 c -1.5125,-0.17403 -2.75,-0.68775 -2.75,-1.14159 0,-0.98069 2.63165,-1.68648 9.75,-2.61491 l 5.25,-0.68474 0,13.92883 C 280,295.42966 280.452,297 284.7,297 c 1.265,0 2.3,0.45 2.3,1 0,0.60606 -4.33333,1 -11,1 -6.14491,0 -11,-0.41205 -11,-0.93358 z m 77,0 c 0,-0.51347 1.2375,-1.07597 2.75,-1.25 l 2.75,-0.31642 0,-12.5 0,-12.5 -2.75,-0.31642 c -1.5125,-0.17403 -2.75,-0.68775 -2.75,-1.14159 0,-0.98069 2.63165,-1.68648 9.75,-2.61491 4.90367,-0.63957 5.25,-0.54431 5.25,1.44409 0,2.73347 1.92145,2.69868 6.69284,-0.12117 3.0351,-1.79372 5.15387,-2.21595 10.44803,-2.08211 C 386.86909,266.98967 390,270.65821 390,285.25034 390,294.89443 390.75265,297 394.2,297 c 0.99,0 1.8,0.45 1.8,1 0,0.56995 -2.96434,1 -6.89301,1 -5.36304,0 -7.02774,-0.35109 -7.5,-1.58179 C 381.27314,296.54823 381,291.42308 381,286.029 c 0,-11.34326 -1.09964,-13.5866 -7.35059,-14.99573 -4.72389,-1.06489 -13.4387,0.95808 -15.3423,3.56141 -1.71624,2.3471 -1.80293,19.5095 -0.10711,21.20532 0.66,0.66 1.98344,1.2 2.94098,1.2 0.95754,0 2.0191,0.45 2.35902,1 0.39779,0.64364 -3.32295,1 -10.44098,1 C 346.87756,299 342,298.58825 342,298.06642 z M 402.07417,297.75 c 0.0408,-0.6875 4.8783,-5.18932 10.75,-10.00405 13.51943,-11.08576 19.34534,-16.66266 18.62471,-17.82866 -0.63457,-1.02676 -15.66096,-1.23485 -19.2756,-0.26694 -1.2797,0.34267 -2.74497,1.7231 -3.25615,3.06763 -1.26439,3.32559 -3.50893,2.37023 -3.06655,-1.30523 0.19282,-1.60201 0.55688,-3.25025 0.80902,-3.66275 0.67141,-1.09842 38.3404,-0.93047 38.3404,0.17094 0,0.50652 -6.75296,6.8447 -15.00659,14.08484 -8.25362,7.24014 -14.75206,13.57571 -14.44098,14.07905 0.6602,1.06823 8.07261,1.17241 17.83441,0.25068 6.20513,-0.58591 7.04651,-0.93103 8.5,-3.48657 3.02011,-5.31002 5.46004,-2.52171 3.13791,3.58596 L 444.0495,299 l -21.02475,0 c -16.19269,0 -21.0077,-0.28728 -20.95058,-1.25 z M 271.24572,256.84572 c -1.93867,-1.93867 -1.47869,-3.78245 1.25428,-5.02767 3.55544,-1.61997 7.75669,0.35578 7.31828,3.44162 -0.25043,1.76274 -1.06531,2.30337 -3.82256,2.53605 -1.92736,0.16264 -4.06486,-0.26486 -4.75,-0.95 z m -74.65106,-15.39391 c -1.295,-1.295 -1.4615,-3.62548 -1.01812,-14.25 2.06466,-49.47442 9.52966,-76.22727 25.90026,-92.82053 7.7269,-7.832 14.22424,-11.62679 23.75404,-13.87364 23.1974,-5.46925 45.78697,3.94446 58.09838,24.21122 10.9407,18.01033 17.65144,51.21862 17.66671,87.42415 0.003,7.8732 -0.28624,9.75442 -1.57772,10.25 -0.86998,0.33385 -9.13988,0.60699 -18.37755,0.60699 -12.24263,0 -17.0638,-0.33886 -17.7845,-1.25 -0.54381,-0.6875 -1.27369,-11.825 -1.62196,-24.75 -0.65438,-24.28461 -1.8912,-34.25227 -5.6527,-45.55559 -4.86488,-14.61897 -17.16084,-20.1494 -27.86014,-12.53083 -4.19679,2.98838 -8.75536,12.94835 -10.56641,23.08642 -1.84268,10.31514 -3.53161,33.48963 -3.54506,48.64301 -0.008,9.2324 -0.28111,11.24709 -1.59168,11.75 -0.86998,0.33385 -8.93784,0.60699 -17.92857,0.60699 -13.4233,0 -16.62366,-0.27688 -17.89498,-1.54819 z M 347.25,242.33772 c -2.9022,-1.17107 -0.76039,-40.77239 3.30232,-61.05865 7.09945,-35.44954 21.32494,-54.69296 44.90778,-60.74862 17.06327,-4.38155 36.53666,0.50785 48.91709,12.28217 11.77037,11.19412 20.29617,31.82292 24.16373,58.4659 2.05811,14.17795 3.64954,47.49708 2.38177,49.86594 -0.90876,1.69803 -2.45432,1.85424 -18.20787,1.84023 -9.46815,-0.008 -17.71129,-0.34592 -18.31809,-0.75 -0.69992,-0.4661 -1.35448,-7.86358 -1.79045,-20.23469 -1.11919,-31.75889 -3.08976,-45.10037 -8.13078,-55.04834 -6.22642,-12.28726 -18.65713,-15.03598 -27.54956,-6.09185 -7.73251,7.77746 -10.83233,22.74802 -11.62445,56.14019 -0.31215,13.15917 -0.99505,24.05004 -1.55192,24.75 -0.73069,0.91845 -5.53732,1.22906 -18.12201,1.17105 -9.42016,-0.0434 -17.69006,-0.30592 -18.37756,-0.58333 z M 51,239.63352 c 0,-3.15509 8.300377,-53.25684 11.950388,-72.13352 1.595227,-8.25 3.655019,-20.85 4.577315,-28 0.922296,-7.15 1.821263,-13.50913 1.997705,-14.1314 0.3313,-1.16843 69.183622,-2.88966 87.974592,-2.19927 l 9,0.33067 0,20 0,20 -27.5,-0.043 c -15.125,-0.0236 -29.075,-0.3627 -31,-0.75345 l -3.5,-0.71047 -0.0169,-7.43438 c -0.015,-6.62921 -0.34144,-7.8962 -3.01384,-11.69858 -3.83939,-5.46278 -8.261257,-8.0268 -13.842894,-8.0268 -11.134554,0 -18.296777,9.29791 -17.446643,22.64901 0.717468,11.26762 7.587669,18.50681 17.570227,18.51392 L 93,176 l -0.0076,6.25 c -0.0042,3.4375 -0.473022,9.11863 -1.041926,12.62474 -0.568905,3.50611 -0.788365,6.62075 -0.487689,6.92142 0.300676,0.30068 4.257043,-0.76715 8.791925,-2.37295 7.05178,-2.49703 9.62033,-2.90342 17.74524,-2.8076 15.57685,0.1837 25.80412,4.97462 37.43371,17.53566 C 161.33695,220.52732 171,237.04371 171,240.75767 171,241.70632 166.23935,242 150.86183,242 l -20.13817,0 -4.42222,-4.07626 c -5.85367,-5.39573 -9.85473,-6.92822 -18.01932,-6.90178 -7.77239,0.0252 -13.301192,2.11389 -19.892959,7.51535 L 84.163406,242 67.581703,242 51,242 l 0,-2.36648 z"
       id="path3059"
       inkscape:connector-curvature="0" />
    <path
       style="fill:#fd5f5f"
       d="M 94.5,351.34327 C 81.611339,348.59306 70.749489,341.91449 61.900938,331.29927 56.997868,325.41726 49.515109,310.70599 50.336973,308.56425 50.852886,307.2198 53.65716,307 70.294301,307 l 19.357071,0 2.424314,2.59516 c 9.348074,10.00686 22.469244,10.73645 32.903904,1.82958 L 130.16331,307 l 18.85933,0 c 10.45274,0 19.11374,0.41165 19.43008,0.9235 0.81885,1.32493 -6.23858,14.5542 -11.43814,21.44097 -14.30405,18.94557 -37.8818,27.23501 -62.51458,21.9788 z m 152.55644,0.56627 c -7.18137,-1.40819 -18.12459,-7.18879 -24.28669,-12.8291 -3.15164,-2.88476 -7.73283,-8.4705 -10.18042,-12.41273 -4.90284,-7.89681 -8.93732,-17.29564 -8.04439,-18.74043 C 204.86429,307.41057 213.47443,307 223.99092,307 l 18.87289,0 2.0484,2.87671 c 2.71318,3.81032 7.82716,6.12329 13.53858,6.12329 5.46661,0 9.01258,-1.63344 12.80692,-5.89947 L 274.01543,307 l 18.49228,0 c 21.01719,0 20.01823,-0.51741 16.56126,8.57788 -10.36856,27.27968 -34.89495,41.64911 -62.01253,36.33166 z m 151.04508,0.0743 c -2.41916,-0.51165 -7.9705,-2.60652 -12.33631,-4.65527 -10.77655,-5.05712 -20.0022,-14.79618 -26.32154,-27.78634 C 356.99965,314.51829 355,309.64102 355,308.70388 355,307.15941 356.75066,307 373.71215,307 l 18.71215,0 4.15172,4.07461 c 7.90677,7.75991 17.62169,7.30185 25.61761,-1.20789 L 424.88726,307 l 18.08775,0 c 15.17873,0 18.1806,0.24194 18.66503,1.50434 0.3175,0.82739 -1.68559,6.11489 -4.45131,11.75 -10.53834,21.47174 -24.52027,31.34659 -45.68873,32.26804 -4.95,0.21547 -10.97931,-0.0269 -13.39848,-0.53851 z M 103.47905,297.60623 C 94.825843,294.89474 92,291.34225 92,283.17545 c 0,-5.35233 1.76199,-8.48389 6.009301,-10.68026 l 2.887889,-1.49339 -1.471555,3.52194 c -0.993625,2.37808 -1.166859,4.09127 -0.533389,5.27492 0.591376,1.105 0.574982,2.40197 -0.04435,3.50865 -0.706818,1.26302 -0.472568,2.78101 0.834792,5.40965 2.282602,4.5895 5.586212,7.02245 11.880862,8.74967 l 4.93645,1.35454 -4.5,0.0225 c -2.475,0.0124 -6.30943,-0.54447 -8.52095,-1.23746 z M 173.5,298.50852 c -0.55,-0.18347 -2.2375,-0.60651 -3.75,-0.9401 -2.48501,-0.54808 -2.74389,-1.01422 -2.68661,-4.83747 0.0479,-3.19558 0.2637,-3.74152 0.88197,-2.23095 1.3876,3.39026 4.78892,5.72262 10.28729,7.05424 l 5.26735,1.27567 -4.5,0.006 c -2.475,0.003 -4.95,-0.14402 -5.5,-0.32749 z m 58.34264,-0.48321 c -7.94943,-2.40153 -13.70236,-9.83456 -12.356,-15.96449 0.83769,-3.81399 3.91118,-7.69806 7.60166,-9.60648 3.04442,-1.57433 3.97856,-0.58464 1.43816,1.5237 -2.13268,1.76997 -2.95905,7.63473 -1.67817,11.90995 1.68814,5.6345 6.09975,9.20155 13.89433,11.23438 l 6.75738,1.76234 -6.5,-0.0283 c -3.575,-0.0156 -7.69581,-0.38956 -9.15736,-0.83109 z m 73.71518,-0.51743 C 297.27177,294.55611 293.47081,289.17773 294.59821,282 c 0.7183,-4.57314 2.7677,-7.64259 6.70612,-10.044 4.03609,-2.46096 5.50256,-2.50509 3.32607,-0.10009 -0.92377,1.02075 -2.16863,4.63227 -2.76635,8.0256 -1.01422,5.75785 -0.93219,6.39528 1.22888,9.54916 2.95843,4.31755 6.99898,6.70135 13.90707,8.20475 l 5.5,1.19696 -6.5,0.0399 c -3.575,0.022 -8.27398,-0.59204 -10.44218,-1.36442 z m 158.97196,-0.10224 c -7.97594,-2.91986 -11.58818,-8.95037 -10.10306,-16.86673 0.69659,-3.71314 5.21084,-8.94936 8.44443,-9.79496 1.96783,-0.5146 1.96775,-0.49646 -0.0147,3.30703 -1.46389,2.80853 -1.73211,4.31276 -1.00971,5.66257 0.62302,1.16413 0.63753,2.45669 0.0396,3.52517 -1.35593,2.42292 1.22577,7.99281 4.926,10.62761 1.67121,1.19001 5.88462,2.78672 9.36314,3.54825 l 6.32458,1.3846 -7,0.03 c -3.85,0.0165 -8.7866,-0.6241 -10.97022,-1.42349 z M 36,297.2 c 0,-0.44 0.425607,-1.2275 0.945794,-1.75 C 37.924557,294.46688 38.886147,256.65844 38,254 c -0.379528,-1.13858 0.463776,-1.57131 3.5,-1.79597 l 4,-0.29598 0,21.29598 c 0,11.71278 0.385645,22.08347 0.856989,23.04597 0.764183,1.56049 0.249794,1.75 -4.75,1.75 C 38.523145,298 36,297.64 36,297.2 z m 40.889929,-0.54959 c 1.31446,-0.7538 3.006677,-2.44602 3.76048,-3.76048 1.341453,-2.33919 1.365022,-2.31562 1.110071,1.11007 -0.240097,3.22612 -0.534356,3.52038 -3.76048,3.76048 -3.42569,0.25495 -3.449259,0.23138 -1.110071,-1.11007 z M 271.83258,285.45336 c 0.23495,-8.86564 -0.027,-12.98274 -0.8925,-14.02556 -1.58433,-1.909 -1.21117,-2.20091 3.84746,-3.00982 l 4.21246,-0.6736 0,13.19355 c 0,7.25646 0.46583,14.06397 1.03518,15.12781 0.95639,1.78702 0.67092,1.93437 -3.75,1.93565 l -4.78518,10e-4 0.33258,-12.54943 z m 77,0 c 0.23495,-8.86564 -0.027,-12.98274 -0.8925,-14.02556 -1.58433,-1.909 -1.21117,-2.20091 3.84746,-3.00982 3.80955,-0.60917 4.21246,-0.47572 4.21246,1.39519 0,1.13784 0.47185,2.36042 1.04856,2.71684 0.71803,0.44377 0.68301,1.0885 -0.11109,2.04534 -0.77921,0.93889 -1.03598,5.01048 -0.78268,12.41097 L 356.53176,298 l -4.01588,10e-4 -4.01588,0.001 0.33258,-12.54943 z m 33.83409,11.87997 C 382.3,296.96667 382,292.04176 382,286.3891 c 0,-9.21878 -0.23179,-10.54626 -2.25,-12.88569 -2.46241,-2.85433 -8.78441,-4.75241 -12.75,-3.82798 -2.09686,0.48881 -2.29021,0.3604 -1.19904,-0.79632 1.76998,-1.87631 14.01875,-1.54082 17.94906,0.49162 4.10316,2.12183 5.11396,5.4349 5.4552,17.88039 l 0.29478,10.75113 -3.08333,-10e-4 c -1.69584,-6.1e-4 -3.38334,-0.30112 -3.75,-0.66779 z m 21.86111,-1.162 c 1.08472,-1.00577 7.93472,-6.89238 15.22222,-13.08136 8.48611,-7.2069 13.25,-11.94251 13.25,-13.17133 0,-1.6357 0.73734,-1.91864 5,-1.91864 2.75,0 5,0.36297 5,0.80661 0,0.44363 -6.52309,6.40613 -14.49575,13.25 -8.37403,7.1884 -14.49755,13.18244 -14.5,14.19339 -0.004,1.46229 -0.94502,1.75 -5.72647,1.75 -5.59585,0 -5.67867,-0.0404 -3.75,-1.82867 z m 37.33739,-1.06845 c 3.05579,-3.35998 3.47699,-3.31433 2.57509,0.27912 -0.46805,1.86487 -1.31194,2.618 -2.93349,2.618 l -2.27642,0 2.63482,-2.89712 z M 202.20056,293.25 c 3.2947,-3.51895 4.10942,-6.3045 2.82896,-9.67236 -1.42688,-3.75298 -7.38392,-6.09402 -20.35889,-8.00078 C 169.51263,273.34929 166,271.30542 166,264.71309 c 0,-3.23361 0.64061,-4.58111 3.42741,-7.2094 1.88507,-1.77785 4.41855,-3.49165 5.62996,-3.80844 2.09534,-0.54795 2.07454,-0.44237 -0.42741,2.1691 -3.41197,3.56133 -3.58296,8.90395 -0.37996,11.87192 2.72329,2.52346 7.24202,3.73796 19.74024,5.30557 10.82492,1.35774 13.11445,2.06285 15.96983,4.91823 3.94293,3.94293 1.76878,11.11352 -4.70305,15.51125 -4.8825,3.31774 -6.27554,3.21687 -3.05646,-0.22132 z m -77.2043,-15 c -0.002,-1.5125 -0.89544,-4.2125 -1.9853,-6 -2.19662,-3.60272 -1.41255,-4.02615 3.11748,-1.68358 3.038,1.57101 6.4697,7.65675 5.34436,9.4776 -0.32496,0.52579 -1.91428,0.95598 -3.53182,0.95598 -2.54077,0 -2.94149,-0.37422 -2.94472,-2.75 z m 202.60871,-1.31891 c -0.40122,-2.5091 -1.65624,-5.00087 -3.27383,-6.5 C 322.25835,268.51009 322.06374,268 323.40364,268 328.14563,268 335,274.28605 335,278.63486 335,280.65414 334.50687,281 331.62781,281 c -3.17047,0 -3.41111,-0.2434 -4.02284,-4.06891 z M 487,277.42308 c 0,-2.65664 -0.78732,-4.36424 -3.0601,-6.63702 l -3.06009,-3.0601 3.31009,0.64857 c 4.65617,0.91231 8.11799,3.73957 9.45167,7.71913 C 495.08275,280.39401 494.68744,281 490.44098,281 487.161,281 487,280.83264 487,277.42308 z m -234.69308,-5.13907 c -1.20619,-1.23319 -4.05523,-2.53994 -6.3312,-2.90388 -2.8461,-0.45511 -3.7225,-0.9333 -2.80693,-1.53154 1.22489,-0.80035 6.87366,-0.39669 11.08121,0.79185 1.78833,0.50516 2.30344,3.05416 0.98469,4.87265 -0.45337,0.62517 -1.57445,0.15454 -2.92777,-1.22908 z M 407,270.66667 C 407,268.60274 407.48708,268 409.15499,268 c 2.12942,0 2.13251,0.0267 0.26065,2.25 -1.04188,1.2375 -2.01162,2.4375 -2.15498,2.66667 C 407.1173,273.14583 407,272.13333 407,270.66667 z M 205,258.73333 c 0,-1.79863 -3.85774,-5.3084 -6.82536,-6.2097 -4.35011,-1.32118 -1.30512,-1.75441 3.77138,-0.53658 4.60163,1.10391 5.05398,1.46673 5.05398,4.05367 0,1.56269 -0.45,3.11936 -1,3.45928 -0.55,0.33992 -1,-0.005 -1,-0.76667 z m 66.47552,-2.77293 c -0.39169,-0.63378 -0.022,-1.84248 0.82152,-2.68601 2.05717,-2.05717 6.971,-0.91661 6.51121,1.51134 -0.38226,2.01858 -6.232,2.95569 -7.33273,1.17467 z m -74.83761,-14.46534 c -1.34831,-1.34831 -1.51046,-3.53199 -1.06137,-14.29325 2.06466,-49.47442 9.52966,-76.22727 25.90026,-92.82053 7.7269,-7.832 14.22424,-11.62679 23.75404,-13.87364 23.1974,-5.46925 45.78697,3.94446 58.09838,24.21122 10.9407,18.01033 17.65144,51.21862 17.66671,87.42415 0.003,7.8732 -0.28624,9.75442 -1.57772,10.25 -0.86998,0.33385 -9.13988,0.60699 -18.37755,0.60699 -12.24263,0 -17.0638,-0.33886 -17.7845,-1.25 -0.54381,-0.6875 -1.27369,-11.825 -1.62196,-24.75 -0.65438,-24.28461 -1.8912,-34.25227 -5.6527,-45.55559 -4.86488,-14.61897 -17.16084,-20.1494 -27.86014,-12.53083 -4.19679,2.98838 -8.75536,12.94835 -10.56641,23.08642 -1.84759,10.34265 -3.53166,33.50113 -3.54506,48.75 -0.007,8.33094 -0.33423,11.24861 -1.25989,11.24465 -0.6875,-0.003 -8.73589,0.24152 -17.88532,0.54325 -14.36597,0.47377 -16.85242,0.3315 -18.22677,-1.04284 z M 347.25,242.33772 c -2.9022,-1.17107 -0.76039,-40.77239 3.30232,-61.05865 7.09945,-35.44954 21.32494,-54.69296 44.90778,-60.74862 17.06327,-4.38155 36.53666,0.50785 48.91709,12.28217 11.77037,11.19412 20.29617,31.82292 24.16373,58.4659 2.05811,14.17795 3.64954,47.49708 2.38177,49.86594 -0.90876,1.69803 -2.45432,1.85424 -18.20787,1.84023 -9.46815,-0.008 -17.71129,-0.34592 -18.31809,-0.75 -0.69992,-0.4661 -1.35448,-7.86358 -1.79045,-20.23469 -1.11919,-31.75889 -3.08976,-45.10037 -8.13078,-55.04834 -6.22642,-12.28726 -18.65713,-15.03598 -27.54956,-6.09185 -7.73251,7.77746 -10.83233,22.74802 -11.62445,56.14019 -0.31215,13.15917 -0.99505,24.05004 -1.55192,24.75 -0.73069,0.91845 -5.53732,1.22906 -18.12201,1.17105 -9.42016,-0.0434 -17.69006,-0.30592 -18.37756,-0.58333 z M 51,239.63352 c 0,-3.15509 8.300377,-53.25684 11.950388,-72.13352 1.595227,-8.25 3.655019,-20.85 4.577315,-28 0.922296,-7.15 1.821263,-13.50913 1.997705,-14.1314 0.3313,-1.16843 69.183622,-2.88966 87.974592,-2.19927 l 9,0.33067 0,20 0,20 -27.5,-0.043 c -15.125,-0.0236 -29.075,-0.3627 -31,-0.75345 l -3.5,-0.71047 -0.0169,-7.43438 c -0.015,-6.62921 -0.34144,-7.8962 -3.01384,-11.69858 -3.83939,-5.46278 -8.261257,-8.0268 -13.842894,-8.0268 -11.134554,0 -18.296777,9.29791 -17.446643,22.64901 0.717468,11.26762 7.587669,18.50681 17.570227,18.51392 L 93,176 l -0.0076,6.25 c -0.0042,3.4375 -0.473022,9.11863 -1.041926,12.62474 -0.568905,3.50611 -0.788365,6.62075 -0.487689,6.92142 0.300676,0.30068 4.257043,-0.76715 8.791925,-2.37295 7.05178,-2.49703 9.62033,-2.90342 17.74524,-2.8076 15.57685,0.1837 25.80412,4.97462 37.43371,17.53566 C 161.33695,220.52732 171,237.04371 171,240.75767 171,241.70632 166.23935,242 150.86183,242 l -20.13817,0 -4.42222,-4.07626 c -5.85367,-5.39573 -9.85473,-6.92822 -18.01932,-6.90178 -7.77239,0.0252 -13.301192,2.11389 -19.892959,7.51535 L 84.163406,242 67.581703,242 51,242 l 0,-2.36648 z"
       id="path3057"
       inkscape:connector-curvature="0" />
    <path
       style="fill:#fd6e10"
       d="M 94,350.4334 C 77.895602,346.94593 63.056359,334.98628 55.164736,319.1342 52.874131,314.53302 51,310.14552 51,309.3842 51,308.25351 54.503295,308 70.128799,308 l 19.128799,0 3.981637,3.59717 c 5.274389,4.76509 10.081525,6.68826 16.760765,6.70541 6.31587,0.0162 11.89725,-2.43236 16.43709,-7.211 L 129.37418,308 l 18.64624,0 c 10.25544,0 18.92489,0.27864 19.26545,0.61921 0.972,0.97199 -5.57921,13.24256 -10.72464,20.08749 -8.12331,10.80639 -20.17324,18.81045 -32.80096,21.78773 -7.75953,1.82949 -21.1571,1.80202 -29.76027,-0.061 z m 151.34788,0.14679 c -14.53886,-3.5266 -28.00716,-14.8846 -35.14502,-29.63826 -2.24632,-4.64306 -4.36624,-9.45443 -4.71093,-10.69193 l -0.62671,-2.25 18.95238,0 18.95238,0 1.62964,2.48714 c 2.25139,3.43606 8.70437,6.51286 13.65941,6.51286 5.02485,0 9.70144,-2.09677 13.48517,-6.04614 L 274.37418,308 l 17.64624,0 c 9.70544,0 17.91343,0.26718 18.23999,0.59374 0.92262,0.92262 -5.54616,15.50653 -9.3097,20.98879 -7.56515,11.01997 -18.84828,18.8414 -30.74993,21.31576 -6.82774,1.41949 -18.29453,1.27272 -24.8529,-0.3181 z m 152.05135,0.38787 C 385.67837,348.64486 374.6406,340.96024 366.36305,329.36028 362.2543,323.60238 356,311.32782 356,309.02196 356,308.36322 362.50866,308 374.31291,308 l 18.31291,0 2.93709,3.08928 c 1.6154,1.6991 4.15224,3.7241 5.63743,4.5 6.21518,3.24696 17.728,0.5021 21.40004,-5.10214 L 424.23002,308 l 18.38499,0 C 454.84192,308 461,308.35331 461,309.05481 c 0,0.58015 -1.32444,4.1672 -2.9432,7.97122 -9.88012,23.21796 -27.10565,35.24275 -49.94329,34.8644 -3.63743,-0.0603 -8.45885,-0.47533 -10.71428,-0.92237 z M 103.47905,297.60623 C 94.825843,294.89474 92,291.34225 92,283.17545 c 0,-5.35233 1.76199,-8.48389 6.009301,-10.68026 l 2.887889,-1.49339 -1.471555,3.52194 c -0.993625,2.37808 -1.166859,4.09127 -0.533389,5.27492 0.591376,1.105 0.574982,2.40197 -0.04435,3.50865 -0.706818,1.26302 -0.472568,2.78101 0.834792,5.40965 2.282602,4.5895 5.586212,7.02245 11.880862,8.74967 l 4.93645,1.35454 -4.5,0.0225 c -2.475,0.0124 -6.30943,-0.54447 -8.52095,-1.23746 z M 173.5,298.50852 c -0.55,-0.18347 -2.2375,-0.60651 -3.75,-0.9401 -2.48501,-0.54808 -2.74389,-1.01422 -2.68661,-4.83747 0.0479,-3.19558 0.2637,-3.74152 0.88197,-2.23095 1.3876,3.39026 4.78892,5.72262 10.28729,7.05424 l 5.26735,1.27567 -4.5,0.006 c -2.475,0.003 -4.95,-0.14402 -5.5,-0.32749 z m 58.34264,-0.48321 c -7.94943,-2.40153 -13.70236,-9.83456 -12.356,-15.96449 0.83769,-3.81399 3.91118,-7.69806 7.60166,-9.60648 3.04442,-1.57433 3.97856,-0.58464 1.43816,1.5237 -2.13268,1.76997 -2.95905,7.63473 -1.67817,11.90995 1.68814,5.6345 6.09975,9.20155 13.89433,11.23438 l 6.75738,1.76234 -6.5,-0.0283 c -3.575,-0.0156 -7.69581,-0.38956 -9.15736,-0.83109 z m 73.71518,-0.51743 C 297.27177,294.55611 293.47081,289.17773 294.59821,282 c 0.7183,-4.57314 2.7677,-7.64259 6.70612,-10.044 4.03609,-2.46096 5.50256,-2.50509 3.32607,-0.10009 -0.92377,1.02075 -2.16863,4.63227 -2.76635,8.0256 -1.01422,5.75785 -0.93219,6.39528 1.22888,9.54916 2.95843,4.31755 6.99898,6.70135 13.90707,8.20475 l 5.5,1.19696 -6.5,0.0399 c -3.575,0.022 -8.27398,-0.59204 -10.44218,-1.36442 z m 158.97196,-0.10224 c -7.97594,-2.91986 -11.58818,-8.95037 -10.10306,-16.86673 0.69659,-3.71314 5.21084,-8.94936 8.44443,-9.79496 1.96783,-0.5146 1.96775,-0.49646 -0.0147,3.30703 -1.46389,2.80853 -1.73211,4.31276 -1.00971,5.66257 0.62302,1.16413 0.63753,2.45669 0.0396,3.52517 -1.35593,2.42292 1.22577,7.99281 4.926,10.62761 1.67121,1.19001 5.88462,2.78672 9.36314,3.54825 l 6.32458,1.3846 -7,0.03 c -3.85,0.0165 -8.7866,-0.6241 -10.97022,-1.42349 z M 36,297.2 c 0,-0.44 0.425607,-1.2275 0.945794,-1.75 C 37.924557,294.46688 38.886147,256.65844 38,254 c -0.379528,-1.13858 0.463776,-1.57131 3.5,-1.79597 l 4,-0.29598 0,21.29598 c 0,11.71278 0.385645,22.08347 0.856989,23.04597 0.764183,1.56049 0.249794,1.75 -4.75,1.75 C 38.523145,298 36,297.64 36,297.2 z m 40.889929,-0.54959 c 1.31446,-0.7538 3.006677,-2.44602 3.76048,-3.76048 1.341453,-2.33919 1.365022,-2.31562 1.110071,1.11007 -0.240097,3.22612 -0.534356,3.52038 -3.76048,3.76048 -3.42569,0.25495 -3.449259,0.23138 -1.110071,-1.11007 z M 271.83258,285.45336 c 0.23495,-8.86564 -0.027,-12.98274 -0.8925,-14.02556 -1.58433,-1.909 -1.21117,-2.20091 3.84746,-3.00982 l 4.21246,-0.6736 0,13.19355 c 0,7.25646 0.46583,14.06397 1.03518,15.12781 0.95639,1.78702 0.67092,1.93437 -3.75,1.93565 l -4.78518,10e-4 0.33258,-12.54943 z m 77,0 c 0.23495,-8.86564 -0.027,-12.98274 -0.8925,-14.02556 -1.58433,-1.909 -1.21117,-2.20091 3.84746,-3.00982 3.80955,-0.60917 4.21246,-0.47572 4.21246,1.39519 0,1.13784 0.47185,2.36042 1.04856,2.71684 0.71803,0.44377 0.68301,1.0885 -0.11109,2.04534 -0.77921,0.93889 -1.03598,5.01048 -0.78268,12.41097 L 356.53176,298 l -4.01588,10e-4 -4.01588,0.001 0.33258,-12.54943 z m 33.83409,11.87997 C 382.3,296.96667 382,292.04176 382,286.3891 c 0,-9.21878 -0.23179,-10.54626 -2.25,-12.88569 -2.46241,-2.85433 -8.78441,-4.75241 -12.75,-3.82798 -2.09686,0.48881 -2.29021,0.3604 -1.19904,-0.79632 1.76998,-1.87631 14.01875,-1.54082 17.94906,0.49162 4.10316,2.12183 5.11396,5.4349 5.4552,17.88039 l 0.29478,10.75113 -3.08333,-10e-4 c -1.69584,-6.1e-4 -3.38334,-0.30112 -3.75,-0.66779 z m 21.86111,-1.162 c 1.08472,-1.00577 7.93472,-6.89238 15.22222,-13.08136 8.48611,-7.2069 13.25,-11.94251 13.25,-13.17133 0,-1.6357 0.73734,-1.91864 5,-1.91864 2.75,0 5,0.36297 5,0.80661 0,0.44363 -6.52309,6.40613 -14.49575,13.25 -8.37403,7.1884 -14.49755,13.18244 -14.5,14.19339 -0.004,1.46229 -0.94502,1.75 -5.72647,1.75 -5.59585,0 -5.67867,-0.0404 -3.75,-1.82867 z m 37.33739,-1.06845 c 3.05579,-3.35998 3.47699,-3.31433 2.57509,0.27912 -0.46805,1.86487 -1.31194,2.618 -2.93349,2.618 l -2.27642,0 2.63482,-2.89712 z M 202.20056,293.25 c 3.2947,-3.51895 4.10942,-6.3045 2.82896,-9.67236 -1.42688,-3.75298 -7.38392,-6.09402 -20.35889,-8.00078 C 169.51263,273.34929 166,271.30542 166,264.71309 c 0,-3.23361 0.64061,-4.58111 3.42741,-7.2094 1.88507,-1.77785 4.41855,-3.49165 5.62996,-3.80844 2.09534,-0.54795 2.07454,-0.44237 -0.42741,2.1691 -3.41197,3.56133 -3.58296,8.90395 -0.37996,11.87192 2.72329,2.52346 7.24202,3.73796 19.74024,5.30557 10.82492,1.35774 13.11445,2.06285 15.96983,4.91823 3.94293,3.94293 1.76878,11.11352 -4.70305,15.51125 -4.8825,3.31774 -6.27554,3.21687 -3.05646,-0.22132 z m -77.2043,-15 c -0.002,-1.5125 -0.89544,-4.2125 -1.9853,-6 -2.19662,-3.60272 -1.41255,-4.02615 3.11748,-1.68358 3.038,1.57101 6.4697,7.65675 5.34436,9.4776 -0.32496,0.52579 -1.91428,0.95598 -3.53182,0.95598 -2.54077,0 -2.94149,-0.37422 -2.94472,-2.75 z m 202.60871,-1.31891 c -0.40122,-2.5091 -1.65624,-5.00087 -3.27383,-6.5 C 322.25835,268.51009 322.06374,268 323.40364,268 328.14563,268 335,274.28605 335,278.63486 335,280.65414 334.50687,281 331.62781,281 c -3.17047,0 -3.41111,-0.2434 -4.02284,-4.06891 z M 487,277.42308 c 0,-2.65664 -0.78732,-4.36424 -3.0601,-6.63702 l -3.06009,-3.0601 3.31009,0.64857 c 4.65617,0.91231 8.11799,3.73957 9.45167,7.71913 C 495.08275,280.39401 494.68744,281 490.44098,281 487.161,281 487,280.83264 487,277.42308 z m -234.69308,-5.13907 c -1.20619,-1.23319 -4.05523,-2.53994 -6.3312,-2.90388 -2.8461,-0.45511 -3.7225,-0.9333 -2.80693,-1.53154 1.22489,-0.80035 6.87366,-0.39669 11.08121,0.79185 1.78833,0.50516 2.30344,3.05416 0.98469,4.87265 -0.45337,0.62517 -1.57445,0.15454 -2.92777,-1.22908 z M 407,270.66667 C 407,268.60274 407.48708,268 409.15499,268 c 2.12942,0 2.13251,0.0267 0.26065,2.25 -1.04188,1.2375 -2.01162,2.4375 -2.15498,2.66667 C 407.1173,273.14583 407,272.13333 407,270.66667 z M 205,258.73333 c 0,-1.79863 -3.85774,-5.3084 -6.82536,-6.2097 -4.35011,-1.32118 -1.30512,-1.75441 3.77138,-0.53658 4.60163,1.10391 5.05398,1.46673 5.05398,4.05367 0,1.56269 -0.45,3.11936 -1,3.45928 -0.55,0.33992 -1,-0.005 -1,-0.76667 z m 66.47552,-2.77293 c -0.39169,-0.63378 -0.022,-1.84248 0.82152,-2.68601 2.05717,-2.05717 6.971,-0.91661 6.51121,1.51134 -0.38226,2.01858 -6.232,2.95569 -7.33273,1.17467 z m -75.05564,-15.30858 c -0.85079,-2.21715 1.36268,-38.39799 3.07808,-50.31337 C 206.22657,143.60078 226.02362,120 258.5,120 c 29.97797,0 48.71985,20.16818 56.94539,61.27907 2.92299,14.60897 4.82675,36.44093 4.37931,50.22093 l -0.3247,10 -18,0 -18,0 -0.23069,-10.5 c -1.22903,-55.94087 -7.20043,-74.69279 -24.11708,-75.73463 -7.55904,-0.46553 -12.4924,2.35372 -16.84838,9.62829 -5.41118,9.03677 -7.71321,23.97464 -9.10871,59.10634 l -0.69514,17.5 -17.7725,0.27317 c -14.46282,0.22229 -17.87214,0.0135 -18.30762,-1.12135 z m 150.90807,-0.23957 c -1.06907,-2.78596 0.51452,-38.35396 2.19312,-49.25818 4.05609,-26.34847 11.80142,-45.53804 22.79453,-56.47497 C 382.70039,124.34739 393.41683,120 408.5,120 c 15.27842,0 26.28718,4.49841 36.56638,14.94179 10.88453,11.05838 18.74115,30.14737 22.45501,54.55821 1.80724,11.87887 4.0963,48.44793 3.1818,50.8311 -0.5653,1.47315 -2.75535,1.6689 -18.67181,1.6689 -9.91726,0 -18.04707,-0.1125 -18.06625,-0.25 -0.0192,-0.1375 -0.45439,-11.275 -0.96713,-24.75 -0.51275,-13.475 -1.58364,-28.1 -2.37976,-32.5 C 427.00199,164.5137 419.8689,155 408.5,155 c -10.47106,0 -16.70994,7.08997 -20.43724,23.22522 -2.60741,11.28735 -3.21846,17.84141 -3.94141,42.27478 l -0.62135,21 -17.7725,0.27317 c -15.68212,0.24103 -17.84624,0.081 -18.39955,-1.36092 z M 52.001067,239.25 c 0.0011,-1.84811 4.61206,-29.05632 8.13126,-47.98096 l 2.088495,-11.23097 5.139589,4.50004 C 72.938512,189.42209 81.047092,193 86.537513,193 L 90,193 l 0,5.5 c 0,3.53688 0.418158,5.5 1.171539,5.5 0.644347,0 3.970255,-1.11966 7.390906,-2.48814 22.804495,-9.12323 46.092655,-1.86733 60.983805,19.00075 C 163.27825,225.74254 170,238.58029 170,240.47804 170,240.76512 161.15796,241 150.35102,241 l -19.64898,0 -3.53116,-3.63591 C 117.11865,227.01363 99.923164,227.22646 87.822354,237.85111 L 84.23597,241 68.117985,241 c -14.684202,0 -16.11789,-0.15567 -16.116918,-1.75 z m 75.885533,-76.97993 -8.6134,-0.34395 -0.50671,-8.88691 c -0.41336,-7.24978 -1.07532,-10.05231 -3.5933,-15.21306 -1.69763,-3.47938 -4.24931,-7.73751 -5.67042,-9.46251 l -2.58382,-3.13637 24.29052,-0.70365 C 144.56926,124.13661 157.75,123.97297 160.5,124.15998 l 5,0.34002 0,19 0,19 -14.5,0.057 c -7.975,0.0314 -18.37603,-0.0978 -23.1134,-0.28694 z"
       id="path3055"
       inkscape:connector-curvature="0" />
    <path
       style="fill:#fd2d2d"
       d="M 94,350.4334 C 77.895602,346.94593 63.056359,334.98628 55.164736,319.1342 52.874131,314.53302 51,310.14552 51,309.3842 51,308.25351 54.503295,308 70.128799,308 l 19.128799,0 3.981637,3.59717 c 5.274389,4.76509 10.081525,6.68826 16.760765,6.70541 6.31587,0.0162 11.89725,-2.43236 16.43709,-7.211 L 129.37418,308 l 18.64624,0 c 10.25544,0 18.92489,0.27864 19.26545,0.61921 0.972,0.97199 -5.57921,13.24256 -10.72464,20.08749 -8.12331,10.80639 -20.17324,18.81045 -32.80096,21.78773 -7.75953,1.82949 -21.1571,1.80202 -29.76027,-0.061 z m 151.34788,0.14679 c -14.53886,-3.5266 -28.00716,-14.8846 -35.14502,-29.63826 -2.24632,-4.64306 -4.36624,-9.45443 -4.71093,-10.69193 l -0.62671,-2.25 18.95238,0 18.95238,0 1.62964,2.48714 c 2.25139,3.43606 8.70437,6.51286 13.65941,6.51286 5.02485,0 9.70144,-2.09677 13.48517,-6.04614 L 274.37418,308 l 17.64624,0 c 9.70544,0 17.91343,0.26718 18.23999,0.59374 0.92262,0.92262 -5.54616,15.50653 -9.3097,20.98879 -7.56515,11.01997 -18.84828,18.8414 -30.74993,21.31576 -6.82774,1.41949 -18.29453,1.27272 -24.8529,-0.3181 z m 152.05135,0.38787 C 385.67837,348.64486 374.6406,340.96024 366.36305,329.36028 362.2543,323.60238 356,311.32782 356,309.02196 356,308.36322 362.50866,308 374.31291,308 l 18.31291,0 2.93709,3.08928 c 1.6154,1.6991 4.15224,3.7241 5.63743,4.5 6.21518,3.24696 17.728,0.5021 21.40004,-5.10214 L 424.23002,308 l 18.38499,0 C 454.84192,308 461,308.35331 461,309.05481 c 0,0.58015 -1.32444,4.1672 -2.9432,7.97122 -9.88012,23.21796 -27.10565,35.24275 -49.94329,34.8644 -3.63743,-0.0603 -8.45885,-0.47533 -10.71428,-0.92237 z M 196.41988,240.65182 c -0.85079,-2.21715 1.36268,-38.39799 3.07808,-50.31337 C 206.22657,143.60078 226.02362,120 258.5,120 c 29.97797,0 48.71985,20.16818 56.94539,61.27907 2.92299,14.60897 4.82675,36.44093 4.37931,50.22093 l -0.3247,10 -18,0 -18,0 -0.23069,-10.5 c -1.22903,-55.94087 -7.20043,-74.69279 -24.11708,-75.73463 -7.55904,-0.46553 -12.4924,2.35372 -16.84838,9.62829 -5.41118,9.03677 -7.71321,23.97464 -9.10871,59.10634 l -0.69514,17.5 -17.7725,0.27317 c -14.46282,0.22229 -17.87214,0.0135 -18.30762,-1.12135 z m 150.90807,-0.23957 c -1.06907,-2.78596 0.51452,-38.35396 2.19312,-49.25818 4.05609,-26.34847 11.80142,-45.53804 22.79453,-56.47497 C 382.70039,124.34739 393.41683,120 408.5,120 c 15.27842,0 26.28718,4.49841 36.56638,14.94179 10.88453,11.05838 18.74115,30.14737 22.45501,54.55821 1.80724,11.87887 4.0963,48.44793 3.1818,50.8311 -0.5653,1.47315 -2.75535,1.6689 -18.67181,1.6689 -9.91726,0 -18.04707,-0.1125 -18.06625,-0.25 -0.0192,-0.1375 -0.45439,-11.275 -0.96713,-24.75 -0.51275,-13.475 -1.58364,-28.1 -2.37976,-32.5 C 427.00199,164.5137 419.8689,155 408.5,155 c -10.47106,0 -16.70994,7.08997 -20.43724,23.22522 -2.60741,11.28735 -3.21846,17.84141 -3.94141,42.27478 l -0.62135,21 -17.7725,0.27317 c -15.68212,0.24103 -17.84624,0.081 -18.39955,-1.36092 z M 52.001067,239.25 c 0.0011,-1.84811 4.61206,-29.05632 8.13126,-47.98096 l 2.088495,-11.23097 5.139589,4.50004 C 72.938512,189.42209 81.047092,193 86.537513,193 L 90,193 l 0,5.5 c 0,3.53688 0.418158,5.5 1.171539,5.5 0.644347,0 3.970255,-1.11966 7.390906,-2.48814 22.804495,-9.12323 46.092655,-1.86733 60.983805,19.00075 C 163.27825,225.74254 170,238.58029 170,240.47804 170,240.76512 161.15796,241 150.35102,241 l -19.64898,0 -3.53116,-3.63591 C 117.11865,227.01363 99.923164,227.22646 87.822354,237.85111 L 84.23597,241 68.117985,241 c -14.684202,0 -16.11789,-0.15567 -16.116918,-1.75 z m 75.885533,-76.97993 -8.6134,-0.34395 -0.50671,-8.88691 c -0.41336,-7.24978 -1.07532,-10.05231 -3.5933,-15.21306 -1.69763,-3.47938 -4.24931,-7.73751 -5.67042,-9.46251 l -2.58382,-3.13637 24.29052,-0.70365 C 144.56926,124.13661 157.75,123.97297 160.5,124.15998 l 5,0.34002 0,19 0,19 -14.5,0.057 c -7.975,0.0314 -18.37603,-0.0978 -23.1134,-0.28694 z"
       id="path3053"
       inkscape:connector-curvature="0" />
    <path
       style="fill:#fd0503"
       d="M 93,349.41734 C 82.861616,346.74257 74.958575,342.1491 67.493864,334.59244 61.074517,328.09402 54.575396,317.94439 52.54698,311.25 l -0.681755,-2.25 18.096805,0 18.096806,0 5.056718,3.99711 c 6.837651,5.40485 14.222276,7.52509 21.083946,6.05352 5.71395,-1.22542 10.10739,-3.6195 13.74187,-7.48822 L 130.34863,309 l 18.38021,0 18.38022,0 -3.80453,7.24341 c -9.38363,17.8654 -22.40083,28.94195 -39.13505,33.30066 -7.11173,1.85237 -23.92706,1.784 -31.16948,-0.12673 z m 151.23015,0.0323 c -16.11223,-4.33785 -30.42553,-18.58045 -36.78405,-36.6024 L 206.08872,309 l 18.06172,0 18.06172,0 2.06532,2.62563 c 1.13593,1.4441 3.90069,3.45921 6.14392,4.47804 7.61853,3.46016 15.27266,1.95643 21.1228,-4.14981 L 274.37418,309 l 17.7562,0 17.75619,0 -2.93638,7.12079 c -3.91742,9.49985 -6.32658,13.28277 -12.83852,20.15937 -9.83021,10.38068 -20.642,14.77294 -36.07177,14.65403 -4.69694,-0.0362 -10.91133,-0.70426 -13.80975,-1.48459 z M 396,349.67166 c -6.9483,-2.03041 -17.95498,-7.79897 -20.11127,-10.54024 l -1.94093,-2.4675 2.6684,-2.78521 c 5.68591,-5.93481 3.91839,-17.37502 -3.14011,-20.32425 C 371.56424,312.75564 370,311.40409 370,310.55103 370,309.24002 371.77082,309 381.4433,309 c 10.41839,0 11.57244,0.18438 12.88524,2.05867 6.32462,9.02966 20.00648,9.46374 28.21566,0.89519 L 425.37418,309 l 17.3803,0 17.3803,0 -0.69851,2.25 c -1.50758,4.85617 -7.92442,16.52986 -11.99772,21.82656 -4.90171,6.37391 -12.51243,11.98098 -20.46137,15.07456 -6.87282,2.67478 -24.12865,3.52179 -30.97718,1.52054 z m -38.51111,-38.68963 c -0.91495,-1.48042 -0.0468,-2.23715 2.08857,-1.82043 1.56224,0.30488 1.57881,0.46702 0.16729,1.63696 -1.12456,0.93209 -1.76118,0.98387 -2.25586,0.18347 z M 197.69842,240.18681 c -0.18782,-0.37775 0.0808,-4.96181 0.59698,-10.18681 0.51616,-5.225 1.07581,-13.55 1.24366,-18.5 0.69062,-20.36647 2.64304,-33.23172 7.13269,-47 7.639,-23.42629 20.21475,-37.43567 37.82825,-42.14065 6.90994,-1.8458 21.8975,-1.72299 28.5685,0.23411 16.80366,4.92975 30.10518,19.78796 37.36508,41.73796 5.01901,15.17477 8.53781,41.2576 8.55571,63.41858 L 319,241 l -17.5,0 -17.5,0 -0.0155,-11.25 c -0.0217,-15.80809 -1.77234,-39.76273 -3.55885,-48.69802 -1.95478,-9.77694 -6.8632,-19.63529 -11.66584,-23.43033 -7.03747,-5.561 -17.95692,-4.42942 -24.45206,2.53398 -3.64902,3.91209 -7.0999,12.82105 -8.80202,22.7237 -1.29689,7.54512 -3.32735,39.51202 -3.47557,54.71825 l -0.0302,3.09758 -16.98004,0.0892 c -9.33902,0.0491 -17.13371,-0.21983 -17.32154,-0.59758 z m 149.92731,0.0166 c -0.87123,-1.40968 1.27062,-38.79862 2.81385,-49.11969 7.08881,-47.40969 25.85394,-70.11349 57.91576,-70.07188 14.02224,0.0182 24.19149,3.5382 33.55571,11.61505 8.52581,7.3537 17.28523,23.63479 21.4522,39.87308 2.79467,10.89057 5.5905,33.73143 6.27614,51.27371 l 0.67514,17.27372 -17.90726,-0.27372 L 434.5,240.5 l -0.62271,-22 c -0.88748,-31.35433 -3.08514,-44.35347 -9.28786,-54.93762 -4.64362,-7.92373 -14.16605,-11.55799 -22.27433,-8.50105 -3.80211,1.43346 -9.05882,6.60118 -11.46503,11.27096 -4.55947,8.84864 -7.81788,34.78969 -7.84018,62.41771 L 383,241 l -17.44098,0 c -9.59254,0 -17.66252,-0.35845 -17.93329,-0.79656 z M 158.76737,238.8326 c 0.86315,-0.86315 1.76224,-0.88079 3.45,-0.0677 2.14368,1.03275 2.07262,1.10381 -1.16737,1.16737 -2.62976,0.0516 -3.17246,-0.20986 -2.28263,-1.09969 z"
       id="path3051"
       inkscape:connector-curvature="0" />
  </g>
</svg>
